<?xml version="1.0" standalone="no"?>
<!DOCTYPE svg PUBLIC "-//W3C//DTD SVG 20010904//EN"
 "http://www.w3.org/TR/2001/REC-SVG-20010904/DTD/svg10.dtd">
<svg version="1.0" xmlns="http://www.w3.org/2000/svg"
 width="720.000000pt" height="720.000000pt" viewBox="0 0 720.000000 720.000000"
 preserveAspectRatio="xMidYMid meet">
<metadata>
Created by potrace 1.14, written by Peter Selinger 2001-2017
</metadata>
<g transform="translate(0.000000,720.000000) scale(0.100000,-0.100000)"
fill="#000000" stroke="none">
<path d="M1707 6912 c-17 -41 -98 -132 -110 -125 -6 3 -7 1 -4 -4 4 -6 0 -13
-8 -17 -8 -3 -15 -1 -15 4 0 5 -7 7 -15 4 -8 -4 -13 -10 -10 -14 2 -4 -4 -15
-14 -24 -13 -12 -21 -14 -26 -6 -5 8 -13 6 -26 -6 -10 -9 -16 -21 -12 -27 3
-6 1 -7 -6 -3 -15 10 -43 -13 -34 -28 3 -6 3 -8 -2 -4 -4 4 -14 3 -21 -3 -16
-13 -13 9 7 56 7 17 12 33 11 37 -1 4 6 4 15 1 9 -4 14 -2 10 4 -7 11 19 35
63 58 16 8 30 18 30 20 0 3 -24 -7 -52 -22 -29 -15 -56 -27 -60 -28 -3 0 -15
-9 -25 -21 -25 -28 -93 -78 -93 -68 0 4 -14 -5 -31 -22 l-32 -29 8 25 c4 14 7
32 8 41 1 17 27 22 27 5 0 -5 7 -1 15 10 13 18 14 18 9 -6 -3 -14 4 -5 15 19
12 24 19 46 17 48 -2 3 -7 -4 -10 -15 -7 -20 -46 -38 -46 -21 0 5 5 9 11 9 5
0 7 5 4 10 -4 6 -18 0 -37 -15 -42 -35 -58 -31 -17 5 19 16 42 30 52 30 10 0
22 11 27 24 10 26 51 59 102 81 18 8 27 14 19 15 -22 0 -122 -60 -175 -106
-27 -24 -53 -41 -58 -38 -4 3 -20 -6 -35 -20 -20 -19 -29 -22 -35 -13 -5 8 -8
7 -8 -5 0 -11 -5 -15 -14 -12 -8 3 -17 1 -21 -5 -3 -6 2 -11 12 -11 14 0 13
-3 -7 -17 -29 -21 -50 -25 -50 -11 0 6 6 8 13 5 8 -3 14 3 14 15 2 16 -1 17
-13 7 -12 -10 -13 -9 -7 7 8 21 70 84 76 77 9 -8 57 9 51 19 -3 5 -12 4 -21
-3 -12 -10 -16 -10 -23 1 -7 11 -13 9 -30 -13 -24 -30 -43 -36 -33 -10 4 11 3
14 -5 9 -7 -4 -12 -12 -12 -18 0 -10 -38 -48 -48 -48 -3 0 2 8 11 18 13 15 14
21 4 32 -8 9 -8 11 0 6 6 -3 15 -1 19 5 4 8 3 9 -5 5 -9 -6 -10 0 -6 21 3 15
-10 -3 -30 -42 -19 -38 -42 -73 -50 -78 -9 -4 -24 -17 -35 -29 -19 -20 -19
-20 -4 38 8 33 24 76 35 97 11 20 18 37 15 37 -14 0 -66 -120 -66 -152 0 -10
-4 -18 -8 -18 -9 0 3 124 14 143 4 7 3 8 -2 4 -14 -13 -33 -85 -27 -106 3 -10
0 -22 -7 -26 -8 -5 -8 -10 0 -20 8 -10 8 -19 1 -34 -8 -14 -8 -21 2 -24 6 -2
0 -4 -15 -4 -24 0 -26 2 -17 19 10 18 23 106 15 97 -2 -2 -13 -39 -25 -83 -12
-43 -35 -98 -52 -122 -45 -66 -83 -154 -72 -165 7 -7 14 0 22 20 7 16 19 32
27 35 8 3 14 12 14 20 0 8 4 18 10 21 7 4 7 -2 1 -18 -6 -14 -7 -28 -3 -33 4
-4 2 -4 -5 0 -7 4 -17 -2 -24 -15 -6 -12 -26 -42 -45 -66 -39 -51 -42 -63 -14
-63 11 0 20 5 20 11 0 5 -6 7 -12 3 -7 -4 -9 -3 -5 1 4 5 14 10 21 11 31 4 3
-103 -41 -162 -26 -34 -57 -104 -49 -111 2 -3 14 13 26 36 21 43 36 55 25 22
-3 -11 -1 -22 5 -26 5 -3 10 0 11 7 1 25 7 43 23 73 14 27 16 28 16 7 0 -12
-7 -38 -14 -57 -16 -38 -11 -46 10 -17 12 16 13 15 14 -8 0 -14 -11 -55 -24
-92 -13 -36 -22 -69 -19 -71 2 -3 -12 -26 -32 -53 -42 -55 -79 -124 -67 -124
5 0 26 28 46 63 38 65 142 186 131 152 -4 -11 -8 -25 -9 -30 -1 -6 -13 -29
-26 -50 -14 -22 -27 -44 -29 -50 -2 -5 -19 -30 -38 -54 -18 -24 -33 -49 -33
-55 0 -6 8 -2 16 9 16 20 16 20 9 -2 -4 -14 -2 -23 4 -23 6 0 11 5 11 10 0 17
30 83 35 78 3 -3 -2 -26 -10 -53 -8 -27 -12 -52 -9 -56 2 -4 1 -10 -4 -13 -8
-5 -6 -79 2 -103 3 -6 -2 -17 -10 -24 -24 -19 -76 -101 -69 -108 4 -3 10 1 15
10 17 30 48 64 54 58 3 -3 -2 -14 -12 -25 -28 -31 -51 -71 -45 -78 3 -3 22 16
41 42 47 61 60 74 65 65 8 -14 -1 -42 -23 -73 -12 -17 -20 -36 -17 -43 3 -7 9
0 15 15 16 39 30 42 37 7 5 -20 2 -36 -7 -47 -16 -20 -48 -77 -48 -86 0 -15
18 -4 30 19 7 14 15 23 18 20 3 -2 0 -10 -6 -17 -5 -7 -15 -31 -21 -53 -6 -22
-25 -56 -42 -75 -57 -63 -110 -160 -89 -160 5 0 16 16 24 35 16 37 25 42 43
24 8 -8 17 -1 32 27 l20 39 -4 -50 c-2 -27 -13 -71 -24 -96 -28 -62 -51 -155
-51 -203 0 -48 10 -41 17 11 6 48 44 193 50 193 3 0 2 -11 -1 -24 -4 -17 -1
-26 11 -30 19 -8 22 -6 26 20 1 10 10 30 20 44 l18 25 -6 -30 c-4 -16 -9 -52
-12 -80 -2 -27 -13 -66 -23 -85 -9 -20 -17 -48 -17 -64 0 -15 -16 -51 -36 -79
-49 -73 -79 -135 -67 -142 6 -4 6 -15 -1 -32 -5 -14 -7 -28 -4 -31 6 -6 4 -10
35 53 34 69 102 165 112 159 4 -3 1 -12 -7 -20 -28 -28 -115 -164 -115 -179 0
-3 4 -5 9 -5 5 0 23 24 40 54 41 73 56 80 25 11 -14 -30 -23 -63 -20 -73 4
-10 -1 -33 -10 -51 -9 -18 -13 -35 -10 -39 4 -3 9 4 13 16 3 12 9 22 14 22 5
0 9 6 9 14 0 7 6 18 13 24 21 18 13 -132 -10 -171 -44 -76 -70 -147 -54 -147
6 0 11 5 11 11 0 20 73 159 84 159 6 0 22 16 35 36 13 19 30 33 37 30 8 -3 11
0 8 8 -3 8 -2 16 3 19 16 10 12 -51 -4 -65 -15 -11 -16 -11 -10 5 4 10 3 16
-2 13 -5 -3 -12 -18 -15 -33 -4 -14 -23 -44 -42 -66 -19 -23 -34 -48 -34 -56
1 -14 3 -13 14 2 26 34 28 16 11 -90 -2 -13 1 -23 6 -23 5 0 9 15 10 33 1 54
9 80 34 119 24 37 53 53 42 24 -3 -8 -9 -31 -13 -52 -7 -36 -36 -90 -68 -126
-9 -10 -16 -24 -16 -31 0 -8 -11 -46 -25 -85 -28 -81 -30 -95 -12 -89 12 4 13
8 16 45 0 10 7 27 15 38 13 17 14 10 11 -66 -2 -66 -9 -99 -30 -145 -15 -33
-28 -79 -30 -102 -2 -26 -15 -60 -32 -85 -35 -52 -56 -98 -44 -98 5 0 14 12
20 28 14 33 56 86 47 60 -9 -29 11 -21 36 15 12 17 31 41 41 52 18 20 18 19
12 -50 -4 -38 -11 -89 -16 -112 -8 -39 -55 -129 -84 -163 -25 -28 -76 -140
-70 -151 4 -6 18 14 32 43 28 61 75 138 84 138 10 0 -16 -112 -33 -145 -17
-32 -34 -105 -25 -105 3 0 16 20 28 45 26 53 53 61 45 15 -2 -17 -19 -45 -36
-63 -35 -35 -76 -107 -61 -107 5 0 12 8 16 19 6 20 100 131 121 144 7 4 16 2
20 -4 4 -8 3 -9 -4 -5 -13 8 -72 -78 -72 -103 0 -9 14 8 30 37 17 28 32 52 35
52 5 0 0 -13 -49 -113 -20 -43 -35 -83 -32 -90 3 -7 8 -3 11 11 4 12 11 22 16
22 5 0 9 6 9 14 0 7 9 16 20 19 27 7 25 -2 -15 -69 -40 -66 -43 -78 -15 -71
17 4 19 1 14 -42 -8 -74 -8 -75 -33 -109 -13 -18 -21 -35 -19 -38 7 -7 70 75
64 84 -8 14 16 82 27 75 5 -3 13 1 18 8 7 11 9 11 9 -2 0 -8 -11 -26 -25 -39
-26 -24 -36 -51 -11 -31 10 8 16 9 21 1 9 -14 -4 -32 -17 -24 -8 5 -9 1 -5
-10 8 -21 -12 -63 -48 -96 -38 -35 -87 -108 -77 -114 5 -3 26 19 47 49 20 30
39 55 41 55 7 0 -11 -36 -37 -75 -34 -50 -26 -62 10 -16 51 65 73 88 66 66 -4
-11 -13 -34 -19 -51 -6 -17 -35 -67 -65 -112 -38 -59 -54 -93 -56 -121 -1 -21
-5 -43 -9 -49 -3 -6 -2 -13 3 -16 5 -3 12 4 15 17 3 12 17 35 30 51 34 40 28
8 -13 -77 -23 -47 -30 -72 -23 -79 7 -7 12 -3 17 13 4 13 30 56 57 96 35 50
54 70 65 66 8 -3 11 -9 6 -12 -12 -8 -53 -76 -53 -87 0 -5 12 5 26 21 14 17
23 24 19 18 -3 -7 -2 -13 4 -13 14 0 0 -43 -41 -125 -38 -76 -54 -125 -39
-125 5 0 15 21 22 46 13 45 14 46 20 18 7 -34 -5 -56 -59 -111 -44 -44 -79
-93 -66 -93 5 0 19 12 32 28 l23 27 -16 -33 c-9 -19 -32 -54 -51 -79 -19 -24
-32 -49 -28 -54 3 -5 17 7 31 28 14 21 55 67 91 102 56 55 66 61 74 46 8 -13
3 -24 -18 -48 -16 -17 -35 -37 -42 -45 -19 -21 -34 -52 -25 -52 4 0 17 14 28
30 19 29 35 39 35 22 0 -5 -3 -12 -7 -16 -4 -3 -8 -16 -10 -27 -2 -11 -13 -38
-24 -61 -24 -46 -36 -104 -21 -94 5 3 13 18 17 33 9 37 57 133 66 133 11 0 -9
-67 -38 -125 -26 -54 -63 -159 -63 -181 0 -8 5 -14 10 -14 6 0 10 6 10 13 0
34 42 144 55 144 10 0 11 -5 4 -18 -14 -26 -29 -69 -24 -69 2 0 10 7 19 15 13
13 14 13 12 -8 -1 -13 -5 -27 -8 -32 -3 -6 -8 -22 -12 -37 -5 -22 -3 -28 10
-28 13 0 12 -4 -5 -26 -12 -15 -21 -36 -21 -48 1 -18 4 -17 31 14 l30 35 -17
-45 c-9 -25 -17 -62 -19 -83 -2 -20 -7 -43 -13 -50 -14 -18 -21 -57 -10 -57 5
0 16 -7 24 -15 11 -11 12 -19 4 -34 -20 -39 -9 -45 21 -11 33 38 29 27 -13
-35 -29 -45 -44 -85 -31 -85 5 0 14 15 21 33 7 17 21 43 33 57 l20 25 -6 -40
c-9 -53 -60 -160 -100 -210 -48 -60 -65 -95 -45 -95 6 0 10 5 10 11 0 9 39 68
63 94 5 6 -7 -22 -26 -61 -32 -63 -57 -144 -44 -144 2 0 14 28 27 62 22 60 63
143 81 163 18 19 9 -53 -10 -76 -25 -33 -54 -90 -47 -96 2 -3 14 12 26 34 l21
38 -7 -33 c-11 -60 -13 -138 -4 -152 7 -11 10 -6 10 18 0 17 4 32 9 32 4 0 16
19 25 43 9 23 25 53 35 66 16 21 18 22 17 5 -1 -10 -12 -52 -25 -92 -16 -50
-21 -84 -17 -107 7 -36 26 -49 23 -17 -2 28 33 113 44 106 5 -3 7 -9 4 -13
-13 -22 -14 -112 0 -150 16 -45 15 -42 15 -71 0 -11 5 -20 11 -20 7 0 9 14 5
40 -3 22 -9 58 -12 80 -10 71 18 41 30 -32 1 -3 5 -10 9 -15 5 -4 6 16 4 45
-2 28 -1 52 4 52 5 0 8 3 8 8 -1 4 -1 21 0 37 1 23 3 27 11 15 6 -8 7 -27 4
-43 -3 -16 -1 -27 5 -27 6 0 10 3 10 7 -3 21 2 32 15 27 9 -3 13 -26 14 -75 2
-78 23 -172 30 -131 2 13 0 35 -5 50 -13 41 -10 165 4 169 6 2 14 -5 18 -16 3
-12 17 -24 31 -27 13 -3 24 -14 24 -23 1 -9 8 -27 16 -41 l15 -25 -5 33 c-7
40 10 43 19 2 4 -16 11 -33 17 -36 6 -4 8 1 4 14 -13 41 -23 123 -15 127 9 6
23 -31 24 -67 0 -42 12 -43 20 -1 l8 38 17 -38 c21 -47 33 -38 15 12 -11 31
-10 40 1 56 8 10 15 15 16 9 7 -48 20 -84 29 -84 5 0 6 6 3 14 -3 7 2 16 11
20 10 4 14 2 9 -5 -4 -6 -1 -15 6 -19 7 -4 14 -30 15 -56 3 -64 3 -66 15 -59
6 4 7 11 4 17 -4 6 -3 13 2 17 5 3 23 26 39 51 26 40 30 42 33 22 2 -12 8 -20
13 -17 5 4 9 -3 9 -14 0 -30 18 -26 27 7 l6 27 14 -33 c7 -18 18 -30 23 -27 5
3 3 19 -4 38 -8 19 -10 40 -5 52 7 19 8 19 8 -2 1 -19 7 -23 30 -23 25 0 28
-3 23 -22 -5 -22 -5 -22 12 -5 28 28 43 20 50 -27 1 -8 6 -19 10 -23 5 -4 7 7
4 24 -6 41 2 42 24 3 17 -29 41 -42 34 -18 -14 43 -15 65 -3 65 6 0 13 -11 14
-25 0 -14 6 -28 13 -32 6 -4 11 -10 10 -14 -3 -10 19 -89 29 -106 19 -28 19
-4 1 50 -26 82 -33 113 -20 105 11 -7 31 34 23 48 -2 4 0 7 4 7 11 0 36 -40
40 -65 2 -11 8 -21 13 -23 6 -2 10 -12 10 -23 0 -10 7 -19 15 -19 12 0 13 4 5
19 -6 13 -6 21 0 23 6 2 7 14 1 35 -8 28 -7 32 16 38 19 4 24 11 20 25 -5 18
-4 18 21 2 25 -16 25 -16 13 7 -11 19 -10 26 2 38 13 14 16 12 22 -17 4 -18 9
-55 10 -82 3 -53 15 -80 15 -35 0 15 5 27 11 27 6 0 9 -6 6 -14 -3 -8 2 -16
13 -19 16 -4 18 0 16 32 -4 36 10 78 22 67 10 -10 11 -49 2 -83 -12 -48 6 -40
23 9 9 24 16 35 16 26 1 -9 -3 -28 -9 -42 -5 -15 -6 -26 0 -26 5 0 12 10 16
22 6 21 7 21 22 -8 14 -27 16 -27 23 -9 7 18 8 18 8 2 1 -19 49 -77 64 -77 4
0 0 11 -9 25 -21 33 -27 76 -9 69 15 -6 25 28 14 48 -12 21 -17 84 -9 98 4 7
13 -10 20 -39 6 -28 16 -51 21 -51 5 0 9 -12 9 -26 0 -15 4 -23 11 -18 6 3 9
15 6 25 -6 23 -3 24 17 3 15 -14 16 -14 16 5 0 11 6 26 13 33 8 7 16 20 20 28
3 9 6 4 6 -12 1 -15 6 -39 12 -55 8 -22 12 -25 20 -13 8 11 9 -1 4 -40 -6 -51
-5 -53 9 -35 8 11 16 26 16 33 0 8 9 25 20 39 19 25 20 25 20 4 0 -11 5 -21
11 -21 6 0 8 9 4 23 -5 18 -3 17 10 -6 9 -15 18 -58 21 -94 6 -72 9 -83 25
-83 6 0 7 5 3 11 -10 16 -14 219 -4 219 11 0 20 -26 20 -56 0 -15 5 -22 12
-19 10 4 12 -11 10 -61 -3 -41 1 -71 8 -78 8 -8 11 1 11 39 -1 78 0 86 9 80 5
-3 13 3 19 12 5 10 13 18 18 18 4 0 7 3 6 7 -2 5 2 8 7 8 6 0 10 -7 10 -16 0
-8 4 -13 9 -9 5 3 8 17 5 30 -2 14 0 25 6 25 5 0 9 -3 9 -7 -3 -18 2 -33 10
-33 5 0 8 20 7 45 -3 56 10 69 20 20 3 -19 11 -38 17 -42 7 -4 8 4 4 24 -3 17
-2 43 2 59 l8 29 7 -30 c3 -16 8 -44 10 -62 7 -53 16 -72 37 -78 13 -4 20 -15
18 -28 -3 -46 1 -87 10 -87 5 0 9 21 9 48 -1 26 0 67 1 92 2 41 3 43 13 20 22
-54 32 -70 39 -70 5 0 4 12 -2 26 -8 24 -8 25 6 14 20 -17 19 -7 -5 40 -11 22
-20 47 -19 57 0 13 3 11 10 -7 8 -18 12 -21 18 -11 11 17 16 7 31 -61 7 -32
17 -55 22 -52 4 3 8 2 9 -3 7 -76 29 -89 24 -14 -4 57 5 80 19 45 3 -8 11 -12
17 -9 7 5 5 13 -5 24 -25 28 -18 37 7 10 13 -13 21 -29 19 -35 -2 -7 1 -15 7
-19 6 -3 12 -1 12 4 2 12 2 12 13 53 7 24 10 25 22 13 8 -7 14 -20 14 -27 0
-7 5 -20 10 -28 7 -10 9 1 4 38 -5 36 -3 52 5 52 6 0 10 -3 10 -7 -3 -20 3
-57 8 -45 2 6 11 12 19 12 9 0 13 -4 9 -9 -10 -18 -23 -101 -14 -101 9 0 15
18 25 73 6 36 24 62 24 35 0 -8 7 -23 16 -34 15 -19 15 -19 9 2 -4 14 0 24 10
28 13 4 15 -1 13 -30 -1 -19 2 -38 8 -42 5 -4 15 -18 21 -32 9 -21 11 -12 7
48 -3 55 0 72 9 69 6 -2 12 -9 12 -15 0 -25 19 -15 29 15 6 17 15 35 20 40 5
5 7 1 3 -9 -4 -10 -2 -18 3 -18 6 0 10 6 10 14 0 8 5 18 12 22 8 5 9 -2 5 -24
-8 -40 4 -48 27 -17 17 23 53 24 39 1 -4 -6 -8 -27 -10 -46 -1 -19 -4 -57 -8
-85 -6 -57 6 -39 25 36 10 40 15 46 33 41 16 -4 19 -2 14 12 -4 10 -3 15 3 11
5 -3 15 -24 21 -45 13 -43 29 -53 29 -19 0 17 2 18 13 7 7 -7 19 -28 26 -45 7
-18 17 -30 22 -28 4 3 -1 24 -11 48 -32 74 -35 91 -15 83 14 -5 16 -2 12 14
-3 11 -1 20 4 20 5 0 8 3 8 8 -4 21 2 42 12 42 5 0 8 -4 4 -9 -3 -5 -1 -12 5
-16 5 -3 10 -1 10 6 0 7 2 10 5 7 3 -3 -2 -21 -10 -41 -18 -44 -19 -67 -3 -67
6 0 9 3 5 6 -7 8 13 64 24 64 4 0 6 -6 3 -14 -3 -8 -1 -16 3 -19 5 -3 8 -38 7
-76 -1 -39 2 -71 7 -71 12 0 23 46 15 65 -3 9 0 15 9 15 18 0 18 2 3 35 -8 19
-8 38 1 81 l13 56 24 -53 c14 -29 24 -62 23 -73 -4 -58 11 -61 17 -4 5 45 35
138 44 138 4 0 10 -13 14 -30 3 -16 11 -30 18 -30 8 0 13 -13 14 -33 2 -74 13
-158 24 -174 9 -14 10 -9 6 27 -3 25 -3 39 0 32 12 -26 21 0 16 43 -3 30 -1
45 7 45 6 0 11 -4 11 -10 0 -5 5 -10 10 -10 6 0 8 12 5 28 -5 30 2 62 15 62
12 0 27 -52 44 -150 1 -3 7 -20 15 -37 22 -53 30 -29 10 29 -10 29 -18 63 -19
76 0 24 15 30 23 10 4 -8 6 -7 6 4 1 9 6 18 13 20 9 3 13 16 17 62 2 20 11 -2
16 -40 8 -51 12 -64 24 -64 6 0 6 11 1 29 -5 18 -4 33 3 40 7 7 7 14 0 23 -5
7 -13 22 -17 32 -5 15 -4 17 7 7 11 -9 14 -5 15 20 2 67 12 38 13 -37 1 -43 2
-83 3 -89 11 -60 20 -85 27 -78 5 5 4 25 -1 45 -11 37 -14 145 -6 188 2 14 5
32 6 40 2 23 21 -30 25 -70 2 -19 8 -36 14 -38 6 -2 11 -14 11 -27 0 -39 12
-85 22 -85 6 0 8 9 5 20 -3 11 -1 18 4 14 5 -3 9 -15 9 -26 0 -36 13 -10 15
30 3 54 27 164 34 156 3 -3 7 -22 7 -42 3 -54 5 -60 14 -32 7 22 8 21 9 -12 1
-21 6 -38 11 -38 10 0 14 21 11 47 -1 7 2 13 7 13 14 0 24 -44 28 -120 4 -82
13 -120 26 -120 6 0 7 8 3 18 -4 9 -8 44 -10 77 -3 51 -3 55 6 28 5 -18 14
-33 20 -33 6 0 8 7 5 17 -18 45 -26 107 -16 117 5 5 10 20 10 33 0 15 5 21 14
17 11 -4 13 3 9 37 -4 25 -2 40 3 36 6 -3 11 -21 12 -39 5 -73 40 -191 53
-182 5 3 6 10 3 16 -18 29 -41 127 -32 139 7 11 8 11 7 -1 -1 -8 0 -22 3 -30
4 -8 9 -23 12 -33 12 -37 44 22 49 90 1 13 6 18 11 13 7 -7 12 -41 15 -122 1
-10 5 -18 9 -18 5 0 7 21 5 46 -3 31 0 43 7 39 14 -9 9 27 -5 37 -6 5 -5 8 3
8 6 0 12 8 12 17 0 9 3 13 8 9 8 -9 9 -14 11 -62 0 -21 5 -33 11 -29 6 3 8 17
6 30 -3 14 0 28 6 31 6 4 8 3 5 -2 -3 -6 -2 -16 4 -24 6 -11 9 -7 11 15 1 17
1 41 0 54 -1 24 -1 24 13 4 15 -22 23 -49 29 -108 5 -51 16 -76 27 -69 5 3 6
10 3 16 -4 6 -9 25 -10 42 -2 17 -6 47 -9 66 -6 38 12 31 20 -8 3 -12 7 -32
10 -44 5 -23 25 -49 25 -32 0 5 -4 24 -9 42 -6 20 -6 32 0 32 5 0 9 10 8 23
-4 41 1 67 12 67 5 0 9 -9 7 -20 -2 -10 1 -19 5 -19 11 0 38 -32 60 -72 10
-17 20 -29 24 -26 3 4 -1 17 -9 29 -21 33 -48 118 -38 118 5 0 14 -18 20 -40
6 -21 15 -42 20 -45 13 -8 12 -5 -1 34 -8 23 -8 35 0 45 6 7 9 21 5 30 -3 9
-1 16 5 16 6 0 11 -16 11 -36 0 -20 4 -33 10 -29 5 3 8 22 5 41 -6 52 2 41 25
-34 20 -67 49 -125 35 -72 -14 58 -14 59 2 53 13 -5 15 -2 9 13 -29 72 -44
124 -35 129 5 4 9 -5 9 -19 0 -14 4 -26 9 -26 5 0 12 -18 16 -40 9 -52 23 -51
32 2 l6 43 15 -43 c7 -23 18 -42 23 -42 5 0 5 10 0 23 -13 33 -17 80 -8 94 4
6 3 23 -3 38 -5 14 -10 34 -9 43 0 9 11 -14 23 -53 29 -89 66 -175 76 -175 5
0 -7 36 -26 81 -34 80 -42 112 -25 94 5 -6 19 -38 31 -72 12 -35 29 -68 36
-74 19 -16 17 -5 -6 41 -12 23 -16 41 -10 45 6 3 1 21 -10 43 -24 45 -25 59
-3 41 15 -13 16 -11 9 21 -4 24 -3 31 4 24 6 -6 15 -39 21 -74 11 -69 15 -80
30 -80 6 0 7 5 4 10 -3 6 -10 33 -14 60 -7 41 -5 50 7 50 8 0 12 6 8 15 -6 17
2 45 14 45 4 0 8 -30 8 -68 1 -88 1 -90 13 -69 9 15 13 16 27 5 14 -11 15 -10
7 7 -4 11 -10 33 -13 50 -4 27 -3 29 12 16 9 -7 16 -10 16 -5 0 4 5 3 12 -4
13 -13 29 -16 27 -4 -1 4 -1 23 0 42 l2 35 14 -25 c8 -14 14 -32 15 -40 0 -8
10 -28 21 -45 24 -35 22 -19 -10 65 -12 30 -21 66 -20 80 1 16 7 4 19 -34 21
-66 30 -79 47 -68 9 6 6 23 -12 67 -26 63 -34 112 -10 60 15 -35 18 -17 6 38
-6 23 -5 37 1 37 5 0 6 6 2 13 -4 7 -3 9 2 4 5 -5 9 -12 10 -15 2 -18 17 -42
26 -42 5 0 7 4 4 9 -4 5 -3 17 0 26 5 13 12 8 30 -22 13 -21 24 -31 24 -23 1
8 8 -2 17 -22 20 -49 36 -49 19 0 -22 63 -27 92 -16 92 5 0 10 -7 10 -15 0
-25 23 -66 35 -61 7 2 17 -12 24 -35 7 -21 16 -39 22 -39 6 0 8 4 5 9 -4 5 -2
11 4 13 5 1 -1 25 -14 53 -16 32 -21 52 -14 56 7 5 7 17 0 40 -9 28 -10 60 -3
109 2 13 50 -98 51 -116 0 -30 20 -84 31 -84 5 0 4 12 -2 27 -5 15 -12 60 -15
101 -4 74 -4 75 14 51 10 -13 28 -45 40 -71 12 -27 26 -48 31 -48 5 0 3 13 -5
29 -8 17 -17 39 -19 51 -2 11 -7 26 -10 33 -4 6 1 3 9 -7 9 -11 16 -23 16 -28
0 -4 5 -7 12 -6 10 3 29 -24 41 -57 3 -5 7 -7 11 -4 4 4 -2 29 -13 57 -18 45
-18 50 -4 45 13 -5 15 -2 9 13 -15 37 -19 84 -7 84 6 0 11 -9 11 -19 0 -11 5
-23 11 -26 7 -5 8 12 3 54 -4 41 -3 61 4 61 6 0 13 8 15 18 4 13 5 12 6 -5 0
-12 -2 -23 -6 -26 -5 -2 -2 -2 5 -1 7 2 17 -8 23 -23 5 -14 12 -23 16 -19 3 3
-5 37 -18 76 -18 55 -21 72 -11 82 9 9 12 8 12 -9 0 -40 21 -83 42 -83 17 0
19 4 13 31 -10 43 -12 119 -4 119 3 0 14 -26 24 -57 22 -72 42 -113 55 -113 6
0 2 17 -8 37 -11 21 -23 52 -27 68 -10 40 -14 127 -7 140 4 6 7 16 9 24 1 7 6
18 11 23 6 6 7 -5 3 -29 -7 -47 -3 -113 8 -113 5 0 9 6 8 13 -3 76 18 87 40
21 15 -44 40 -80 48 -72 3 3 -3 21 -13 40 -11 19 -23 50 -27 69 -8 34 -14 149
-8 149 2 0 8 -11 13 -25 10 -27 30 -34 30 -11 0 7 -7 30 -16 51 -8 20 -11 34
-6 31 5 -3 14 -23 22 -45 7 -23 17 -41 23 -41 5 0 6 8 2 18 -21 50 -22 79 -4
90 23 15 29 15 29 1 0 -5 -4 -7 -10 -4 -5 3 -10 1 -10 -4 0 -13 7 -13 35 -1
11 5 14 9 6 9 -8 1 -11 7 -7 17 3 8 2 13 -3 10 -4 -3 -13 5 -18 17 -9 18 -6
25 13 40 23 17 24 17 25 0 2 -59 24 -148 41 -167 12 -14 10 -4 -12 104 -15 73
-17 96 -7 102 8 5 14 -3 18 -23 7 -33 16 -46 25 -37 3 4 0 17 -7 30 -12 23
-12 23 10 4 25 -22 27 -16 6 23 -8 16 -11 31 -8 35 13 13 32 5 38 -15 5 -15
10 -18 17 -11 8 8 7 19 -1 39 -13 32 -19 58 -27 125 -6 46 -6 46 22 43 41 -4
53 12 38 54 -7 20 -10 44 -9 53 2 10 -2 18 -8 18 -7 0 -6 4 3 10 8 5 15 15 15
21 0 7 6 14 13 17 7 2 10 -2 6 -12 -4 -10 -1 -16 7 -16 9 -1 7 -6 -6 -17 -13
-10 -15 -14 -4 -10 12 4 19 -6 29 -43 7 -27 19 -51 27 -54 16 -7 16 -5 -1 41
-8 21 -17 57 -19 80 -4 35 -2 43 11 44 12 0 10 3 -5 9 -31 13 -33 70 -3 70 11
0 20 4 20 8 0 5 17 9 37 10 20 1 40 5 45 10 4 4 -16 5 -45 2 -38 -4 -54 -2
-54 6 0 7 7 10 15 6 10 -3 13 0 10 9 -3 8 -15 14 -28 14 -31 0 -36 20 -11 37
12 8 19 17 16 19 -2 3 4 5 13 5 9 1 25 4 35 9 28 12 21 -20 -8 -33 -14 -6 -25
-16 -25 -23 0 -6 12 -1 27 11 25 19 36 17 34 -7 -1 -8 -6 -9 -38 -12 -14 -1
-14 -4 -5 -13 10 -10 15 -10 21 0 5 8 12 14 17 14 30 0 34 15 15 53 -22 45
-20 54 6 34 10 -7 14 -9 10 -4 -4 5 3 15 15 23 15 9 17 11 5 8 -25 -8 -44 4
-26 15 11 7 11 9 -1 9 -13 0 -13 1 0 10 13 8 12 10 -4 10 -15 0 -16 3 -6 15 9
10 9 15 1 15 -6 0 -11 5 -11 11 0 6 9 8 23 3 20 -6 19 -4 -6 16 -28 22 -28 40
0 40 13 0 13 -3 3 -15 -11 -13 -10 -14 4 -9 23 9 14 29 -13 28 -33 -1 -22 28
19 49 19 10 25 15 13 12 -15 -4 -23 -2 -23 6 0 9 -4 8 -15 -1 -8 -7 -15 -8
-15 -2 0 5 7 15 16 23 12 10 17 10 23 0 6 -10 11 -10 22 1 8 8 21 17 29 21 46
23 64 37 48 37 -9 0 -20 -4 -23 -10 -3 -6 -14 -10 -25 -10 -10 0 -20 -7 -24
-15 -3 -8 -11 -15 -17 -15 -8 0 -7 5 2 17 12 15 12 16 -1 8 -33 -20 -53 -12
-29 12 8 8 7 13 -2 18 -8 5 -10 4 -5 -3 5 -8 1 -10 -10 -5 -16 6 -15 8 4 16
12 6 22 14 22 20 0 5 7 4 15 -3 14 -11 14 -10 6 13 -8 21 -6 28 12 41 22 16
22 16 1 7 -19 -9 -22 -8 -20 14 0 14 7 25 14 25 15 0 16 16 0 26 -7 5 -8 3 -3
-6 5 -9 4 -11 -3 -6 -17 10 -15 33 3 40 8 3 12 11 10 19 -5 13 11 33 50 63 16
13 17 15 3 10 -29 -9 -21 12 22 55 22 22 40 42 40 45 0 2 -12 -1 -26 -6 -34
-13 -47 -13 -38 2 5 7 -5 3 -20 -10 -31 -24 -46 -28 -46 -11 0 5 5 7 12 3 7
-5 9 -2 5 9 -4 11 -2 14 7 11 8 -3 20 3 27 13 8 11 25 27 39 36 13 9 20 17 14
17 -6 0 -23 -11 -38 -25 -32 -30 -57 -34 -31 -5 18 19 17 20 -6 21 -23 1 -23
1 -3 7 13 4 20 14 18 25 -1 9 2 14 8 11 5 -3 8 -14 5 -24 -3 -13 0 -17 9 -13
8 3 14 9 14 13 0 5 8 11 18 13 13 4 12 5 -5 6 -19 1 -31 17 -39 56 -1 6 -5 19
-10 30 -6 16 -3 15 14 -5 l22 -25 -19 52 -20 52 32 20 c35 23 32 26 -7 11 -22
-8 -26 -7 -26 10 0 10 5 22 10 25 6 4 8 10 6 14 -13 20 35 67 104 103 73 38
63 44 -12 9 -37 -18 -41 -8 -7 17 22 15 14 43 -8 35 -12 -5 -14 -3 -8 6 6 10
3 11 -13 2 -16 -8 -21 -7 -26 5 -3 8 -2 12 4 9 5 -3 15 5 22 19 6 14 15 26 19
26 4 0 10 8 14 18 5 14 4 15 -6 5 -16 -16 -43 -17 -33 -1 5 7 3 8 -5 3 -9 -5
-9 -11 -3 -17 14 -14 3 -38 -17 -38 -14 1 -14 2 1 14 10 7 15 16 11 19 -3 4
-12 2 -20 -4 -8 -7 -13 -8 -13 -1 0 5 7 15 15 22 8 7 12 16 9 21 -3 5 7 4 21
-1 19 -7 24 -7 19 2 -5 8 0 9 14 6 13 -4 20 -2 16 4 -3 5 -19 6 -35 3 -23 -5
-28 -4 -23 8 3 8 15 19 26 24 15 6 18 12 10 17 -7 4 -12 2 -12 -3 0 -6 -7 -11
-16 -11 -14 0 -14 3 -3 18 11 14 11 15 -1 5 -19 -17 -33 -16 -27 1 4 11 1 13
-11 10 -15 -5 -15 -4 1 9 9 8 17 17 17 21 0 9 53 55 63 56 10 0 41 30 32 30
-3 0 -18 -8 -33 -17 l-27 -17 19 22 c11 12 16 25 13 29 -4 3 -7 1 -7 -5 0 -7
-7 -12 -15 -12 -8 0 -15 -7 -15 -15 0 -9 -8 -19 -17 -22 -10 -4 -20 -10 -23
-14 -3 -4 -14 -1 -25 7 -19 14 -19 14 5 12 18 -2 25 2 25 15 0 20 81 70 101
63 6 -2 11 2 11 9 0 17 -40 5 -119 -36 -21 -11 -38 -17 -38 -13 0 8 53 50 59
46 2 -2 7 0 10 5 3 4 22 16 41 26 19 10 26 15 15 12 -28 -9 -115 -23 -115 -18
0 2 10 19 23 38 14 22 27 33 37 29 8 -3 11 -2 7 2 -4 4 -2 13 4 20 8 10 6 11
-15 1 -14 -7 -27 -19 -30 -27 -2 -8 -4 -5 -5 8 0 12 4 22 11 22 6 0 3 6 -8 14
-18 14 -17 15 19 30 40 17 48 28 19 23 -22 -3 -80 -47 -62 -47 10 0 10 -3 0
-15 -7 -8 -20 -15 -29 -15 -14 1 -14 2 1 11 10 5 15 16 12 24 -4 9 0 15 9 15
8 0 22 11 30 23 9 13 29 30 46 37 17 7 31 16 31 21 0 5 -12 3 -27 -4 -16 -8
-36 -13 -46 -11 -12 1 -17 -2 -13 -11 3 -8 1 -17 -5 -20 -5 -4 -9 -3 -8 2 5
26 -2 32 -26 23 -18 -7 -25 -6 -25 3 -1 8 -5 7 -13 -3 -7 -8 -19 -16 -27 -18
-11 -3 -9 2 5 18 10 11 24 19 31 16 7 -3 20 4 30 15 19 21 39 26 28 7 -4 -8
-3 -10 2 -5 5 5 9 21 9 37 0 17 9 36 25 49 18 16 20 20 5 12 -31 -15 -61 -40
-49 -41 18 0 12 -28 -8 -33 -15 -4 -17 -2 -8 8 15 18 2 45 -18 39 -15 -5 -15
-4 -2 8 9 7 17 24 17 38 2 17 -1 20 -6 11 -7 -11 -9 -11 -13 0 -3 9 -6 8 -11
-5 -4 -9 -3 -15 2 -11 24 14 15 -12 -10 -33 -21 -17 -29 -19 -35 -10 -4 7 -4
10 1 6 4 -4 15 0 24 9 11 12 12 18 4 20 -10 4 -9 8 2 20 8 8 12 19 9 24 -3 6
2 19 12 30 19 21 39 26 28 7 -5 -9 -3 -9 9 1 9 7 14 17 11 22 -3 5 4 9 15 9
11 0 22 4 25 9 4 5 -4 7 -16 4 -23 -5 -23 -5 -3 12 19 17 19 17 -5 1 -45 -29
-102 -57 -106 -53 -2 2 7 10 21 17 14 7 25 18 25 23 0 5 -11 2 -25 -7 -31 -20
-32 -14 -3 14 13 12 17 20 9 20 -7 0 4 16 25 35 22 19 34 35 27 35 -6 0 -13
-4 -15 -10 -4 -12 -68 -21 -68 -9 0 8 13 12 30 11 3 0 6 8 7 18 1 14 -3 17
-15 13 -14 -5 -15 -3 -4 8 13 14 16 30 4 26 -4 -1 -8 1 -10 6 -5 17 -1 27 14
27 8 0 13 4 9 10 -3 6 -15 5 -31 -2 -14 -7 -20 -14 -14 -18 7 -4 4 -14 -8 -28
-11 -12 -22 -19 -25 -16 -3 4 1 13 9 21 8 8 12 19 9 24 -4 5 10 18 29 30 20
12 36 22 36 24 0 6 -51 -8 -56 -16 -3 -5 -12 -9 -21 -9 -13 0 -13 2 -2 17 13
15 12 15 -8 3 -12 -8 -20 -17 -17 -21 2 -4 0 -10 -5 -13 -5 -4 -8 2 -6 11 2
10 4 21 4 24 1 8 52 23 65 20 5 -1 6 5 2 14 -3 9 -6 20 -6 23 0 4 -5 0 -10 -8
-6 -9 -10 -10 -10 -3 0 6 8 18 18 25 21 15 42 45 24 34 -7 -4 -12 -2 -12 3 0
10 14 15 33 12 5 -1 6 3 2 9 -3 6 4 15 17 20 21 9 20 9 -7 6 -16 -3 -32 -5
-35 -6 -3 -1 -9 -2 -13 -1 -5 1 -6 -3 -2 -9 5 -9 -1 -12 -21 -9 -4 0 -11 -5
-15 -13 -5 -7 -9 -8 -9 -2 0 6 18 24 40 39 46 32 47 44 1 21 -40 -21 -62 -20
-33 2 21 17 22 18 3 18 -11 0 -17 -4 -14 -9 3 -5 -3 -7 -13 -6 -11 2 -25 0
-31 -4 -7 -5 -13 -4 -13 2 0 12 81 51 107 51 15 0 15 2 3 9 -8 6 -17 8 -20 6
-4 -2 -17 -6 -31 -9 -13 -2 -37 -7 -54 -11 -16 -4 -26 -4 -22 1 4 4 15 9 25
10 9 2 25 14 35 28 10 14 26 26 35 26 10 0 28 9 42 20 l25 20 -44 -15 c-52
-18 -54 -18 -45 -3 5 7 3 8 -7 2 -18 -11 -59 -13 -59 -3 0 4 7 14 15 23 19 18
20 33 2 17 -8 -6 -18 -7 -22 -3 -5 4 -6 2 -2 -3 3 -6 -1 -21 -10 -35 -8 -14
-12 -17 -9 -7 6 20 -14 23 -32 5 -9 -9 -12 -9 -12 0 0 7 6 12 13 12 8 0 7 4
-3 10 -11 7 -11 10 -2 10 7 0 10 5 7 10 -3 6 -1 10 5 10 7 0 9 -7 5 -17 -5
-15 -4 -16 7 -5 9 9 10 17 1 31 -9 14 -8 18 3 18 7 0 11 -4 8 -9 -3 -4 0 -8 6
-8 6 0 10 8 8 18 -4 18 20 40 65 60 15 7 27 19 26 29 0 16 -2 15 -9 -2 -6 -13
-9 -15 -9 -5 -1 13 -2 13 -11 0 -13 -20 -46 0 -43 26 1 11 0 13 -3 7 -12 -28
-40 -11 -35 20 1 4 -7 3 -17 -2 -20 -11 -52 2 -33 13 6 4 11 5 11 1 0 -3 9 -1
20 5 11 6 18 15 16 19 -3 4 5 6 18 4 13 -3 27 0 30 6 4 6 -2 8 -16 6 -22 -4
-22 -4 -4 10 28 21 14 18 -33 -7 -39 -21 -42 -21 -59 -5 -15 16 -15 19 -2 28
12 9 12 10 -4 5 -13 -5 -17 -2 -13 8 4 10 0 14 -14 11 -11 -2 -17 0 -14 6 4 5
13 9 21 9 8 0 14 7 14 16 0 9 14 21 30 27 30 11 39 30 20 42 -6 4 -9 1 -8 -5
2 -7 -7 -16 -20 -21 -18 -7 -22 -6 -19 4 2 6 10 11 16 9 7 -1 10 2 7 7 -8 13
-66 -10 -59 -23 4 -6 2 -8 -2 -3 -5 4 -18 -1 -29 -10 -20 -17 -20 -17 -6 1 12
15 12 20 2 24 -10 3 -10 7 0 20 9 13 7 12 -9 -1 -14 -13 -29 -16 -43 -12 -29
9 -15 20 33 24 5 1 6 5 2 10 -3 5 11 15 30 22 20 8 35 20 34 29 0 10 -2 11 -6
2 -2 -6 -9 -10 -14 -6 -5 3 -9 -1 -9 -8 0 -10 -2 -11 -8 0 -7 10 -15 8 -35 -8
-24 -19 -26 -19 -20 -3 6 17 5 17 -14 1 -11 -10 -23 -18 -28 -18 -4 0 4 9 19
21 14 11 30 18 35 14 6 -3 14 3 20 12 6 10 11 15 11 10 0 -7 80 30 80 38 0 2
-21 -3 -46 -12 -39 -13 -48 -13 -55 -2 -6 10 -9 8 -9 -9 0 -13 -4 -21 -9 -17
-5 3 -13 0 -16 -5 -7 -11 -31 -22 -75 -34 l-25 -7 25 15 c14 9 33 15 43 16 10
0 15 5 12 10 -4 6 -11 8 -16 5 -5 -4 -12 1 -15 10 -6 13 -8 14 -15 3 -7 -10
-9 -9 -9 5 0 9 4 17 10 17 5 0 14 -8 20 -17 10 -16 11 -15 7 5 -3 12 -1 20 4
16 5 -3 17 0 26 5 14 9 10 10 -19 7 -21 -2 -39 2 -41 8 -3 7 8 11 29 10 21 -1
38 4 46 15 10 13 10 14 -1 5 -7 -7 -28 -9 -47 -7 -20 3 -41 -1 -49 -7 -8 -7
-15 -9 -15 -5 0 4 -7 2 -15 -5 -9 -7 -18 -11 -20 -8 -7 7 45 58 58 58 6 0 7 3
4 7 -4 3 1 15 10 26 10 11 -6 2 -35 -21 -30 -23 -59 -42 -65 -41 -8 0 -8 2 1
6 6 2 10 8 7 13 -6 9 30 51 39 45 3 -3 4 -2 1 2 -3 3 0 12 6 20 9 10 8 13 -5
13 -9 0 -16 -3 -16 -8 0 -4 -10 -13 -22 -21 -20 -13 -22 -12 -11 1 11 13 8 15
-25 13 -47 -3 -59 3 -34 21 13 9 18 21 15 37 -4 19 4 27 49 51 29 15 44 24 33
21 -33 -12 -96 -14 -90 -4 4 5 -1 9 -10 9 -9 0 -14 -4 -11 -9 3 -5 0 -14 -8
-20 -10 -9 -17 -7 -27 5 -10 13 -10 17 0 24 8 4 10 13 6 20 -5 8 -16 3 -36
-16 -36 -35 -38 -20 -2 18 22 23 28 25 37 13 9 -13 15 -11 41 10 25 21 26 25
10 23 -13 -2 -19 2 -17 12 3 11 -2 10 -17 -4 -12 -11 -21 -16 -21 -12 0 4 -8
2 -18 -3 -14 -7 -19 -6 -19 4 0 8 3 13 6 11 3 -2 26 7 51 20 54 28 32 32 -25
4 -45 -22 -71 -25 -80 -9 -11 16 27 40 43 27 7 -6 15 -8 19 -4 3 3 1 6 -6 6
-7 0 -10 4 -7 9 12 18 -33 18 -50 0 -9 -10 -22 -19 -27 -19 -6 0 -2 7 9 16 15
13 16 15 2 10 -13 -4 -15 -1 -11 12 5 13 3 14 -7 5 -7 -6 -19 -9 -27 -6 -8 3
-19 0 -24 -8 -7 -12 -9 -12 -9 0 0 11 -5 9 -21 -5 -22 -19 -22 -19 -10 4 10
19 35 28 64 23 4 -1 18 5 30 14 12 8 17 15 11 15 -6 0 -14 -3 -18 -7 -12 -12
-51 -10 -61 3 -15 18 -48 22 -60 6 -8 -10 -11 -9 -12 9 -1 11 1 19 4 15 3 -3
13 0 21 7 13 10 14 9 7 -3 -8 -13 -7 -13 9 0 17 13 17 14 -1 21 -16 6 -15 8
10 18 15 6 27 13 27 17 0 3 -8 3 -17 -1 -50 -19 -78 -5 -30 16 l22 10 -23 -5
c-19 -4 -21 -2 -11 10 16 19 0 18 -23 -3 -24 -22 -25 2 -1 31 13 15 10 14 -10
-3 -15 -14 -27 -21 -27 -17 0 5 -6 3 -13 -3 -8 -6 -22 -12 -33 -14 -10 -1 -25
-6 -31 -10 -7 -5 -13 -4 -13 2 0 14 32 29 49 23 8 -3 11 0 7 7 -4 6 -2 11 5
11 7 0 9 3 6 6 -5 6 -53 -12 -92 -34 -5 -3 -5 1 2 9 6 8 11 18 11 24 0 5 5 11
11 13 6 2 11 -2 11 -9 0 -8 7 -6 20 6 10 9 26 15 34 12 10 -4 13 -1 9 8 -4 11
-10 12 -23 5 -27 -14 -47 -12 -54 6 -3 8 -2 12 4 9 6 -3 10 -1 10 4 0 6 15 18
33 26 20 9 23 12 8 9 -20 -5 -23 -3 -17 12 5 17 4 17 -11 -2 -18 -20 -73 -58
-73 -50 0 2 -14 -9 -31 -25 -36 -34 -60 -40 -27 -7 13 13 27 22 31 20 5 -1 6
2 2 8 -4 6 -1 19 7 28 7 9 -2 5 -20 -10 -20 -17 -39 -25 -49 -21 -9 4 -14 2
-10 -3 3 -6 2 -16 -3 -24 -8 -12 -11 -13 -22 -2 -7 8 -8 13 -3 12 22 -5 27 1
15 16 -8 8 -9 14 -4 13 19 -3 58 3 47 8 -20 7 -15 23 5 17 13 -5 14 -4 3 4
-17 12 -44 4 -35 -10 4 -6 -2 -8 -11 -6 -33 6 -27 27 14 48 23 11 41 23 41 26
0 2 -9 0 -19 -6 -20 -10 -51 -4 -51 10 0 4 -13 6 -30 5 -26 -2 -28 0 -19 16 6
11 6 19 0 19 -5 0 -11 -10 -15 -23 -3 -13 -12 -24 -21 -24 -19 0 -19 17 0 45
14 20 14 21 0 16 -8 -3 -15 -12 -15 -20 0 -8 -4 -14 -9 -14 -6 0 -8 -8 -6 -18
3 -15 -2 -17 -27 -14 -20 3 -26 7 -17 13 7 4 16 6 19 4 4 -2 7 2 7 10 0 8 -5
11 -11 8 -6 -4 3 9 19 29 17 19 33 34 36 32 3 -2 6 4 6 12 0 9 -18 -2 -45 -28
l-44 -43 37 55 38 54 -41 -33 c-23 -18 -45 -38 -49 -44 -3 -7 4 -3 17 8 l24
20 -20 -26 c-12 -17 -22 -23 -26 -16 -4 7 -11 7 -22 -2 -23 -19 -20 -30 7 -24
12 3 19 3 16 -1 -3 -3 -20 -8 -38 -10 -31 -3 -32 -3 -14 18 10 11 21 23 25 26
4 3 3 12 -3 20 -8 13 -10 13 -18 0 -5 -8 -7 -18 -4 -24 3 -5 1 -6 -5 -3 -11 7
-10 20 3 49 4 10 11 16 15 13 5 -3 12 0 16 6 5 8 -1 10 -20 7 -20 -4 -24 -2
-16 7 5 6 7 15 3 18 -3 4 1 7 10 7 9 0 17 5 17 11 0 5 -4 7 -10 4 -6 -3 -7 1
-4 9 3 9 10 14 14 11 5 -3 12 0 16 6 4 8 3 9 -4 5 -16 -10 -15 0 4 32 l16 27
-20 -22 c-11 -12 -23 -19 -26 -15 -4 3 -4 -1 -1 -9 8 -21 -41 -69 -66 -64 -11
2 -31 -7 -46 -21 -31 -29 -48 -31 -31 -4 7 11 16 20 21 20 4 0 6 4 2 9 -3 5 0
13 6 17 8 4 9 3 5 -4 -4 -7 -3 -12 2 -12 5 0 12 10 16 23 9 33 7 44 -5 24 -9
-15 -13 -16 -27 -5 -9 7 -13 8 -9 2 4 -6 -3 -20 -16 -30 -12 -10 -16 -12 -9
-4 6 8 12 22 12 32 0 10 5 18 10 18 6 0 10 5 10 11 0 8 -4 8 -13 0 -10 -8 -17
-7 -27 2 -10 10 -11 9 -5 -2 6 -11 4 -13 -8 -8 -9 3 -19 2 -22 -2 -2 -5 -13
-11 -23 -13 -18 -5 -18 -2 -9 36 6 22 13 43 16 46 3 3 11 21 18 40 11 31 11
33 -2 16 -8 -11 -15 -25 -15 -32 0 -6 -7 -15 -16 -18 -9 -4 -14 -9 -11 -12 10
-10 -15 -79 -36 -99 -17 -16 -20 -17 -14 -2 3 9 3 16 -1 16 -21 -3 -19 4 9 30
19 18 28 35 23 42 -5 8 -3 9 6 4 9 -6 11 -4 6 4 -8 12 -21 7 -21 -9 0 -11 -45
-50 -57 -50 -5 0 -6 -4 -3 -10 3 -6 -1 -7 -10 -4 -9 4 -15 3 -13 -2 5 -19 -14
-54 -30 -54 -13 0 -11 4 6 21 12 11 20 24 17 29 -3 4 14 22 37 39 50 37 43 42
-9 6 -20 -13 -39 -23 -41 -20 -2 2 10 23 28 47 l32 43 -36 -38 c-27 -27 -38
-34 -42 -23 -6 16 23 66 38 66 5 0 7 4 3 9 -3 6 9 27 27 48 18 21 23 30 12 20
-11 -9 -24 -14 -29 -10 -4 5 -6 3 -2 -2 3 -6 -4 -22 -15 -35 -17 -21 -19 -22
-14 -5 l6 20 -16 -20 c-8 -11 -20 -19 -25 -17 -6 1 -8 -2 -4 -8 7 -11 -34 -90
-47 -90 -5 0 -13 -10 -19 -22 -11 -25 -11 -29 6 46 2 10 1 15 -3 12 -4 -4 -7
-13 -7 -19 -1 -7 -7 -11 -14 -9 -8 2 -10 -4 -6 -17 3 -11 1 -22 -4 -25 -6 -4
-8 -14 -5 -24 5 -14 4 -15 -5 -2 -10 13 -15 8 -12 -12 0 -5 -3 -8 -9 -8 -13 0
-13 17 0 25 6 4 8 10 5 15 -3 4 3 11 12 14 14 6 15 9 4 15 -11 7 -11 13 -1 32
12 22 36 43 51 44 8 0 42 35 34 35 -3 0 -17 -7 -30 -16 -14 -9 -25 -13 -25
-10 0 4 -6 2 -12 -4 -40 -33 -111 -82 -100 -67 8 9 10 22 6 28 -4 8 -3 9 4 5
7 -4 23 4 36 19 16 17 30 24 38 19 10 -5 11 -4 1 6 -11 12 -18 9 -43 -15 -16
-16 -30 -23 -30 -16 0 7 -4 9 -10 6 -6 -3 -10 -15 -10 -25 0 -11 -9 -24 -20
-30 -12 -6 -18 -16 -14 -23 4 -7 4 -9 -1 -5 -4 4 -17 3 -29 -3 -11 -6 -4 4 17
22 27 23 35 34 26 40 -19 11 9 42 33 36 10 -3 20 -2 23 3 3 4 -6 10 -20 12
-13 3 -26 0 -28 -6 -3 -8 -11 -7 -27 2 -12 8 -19 9 -16 4 6 -9 -22 -23 -54
-26 -8 -1 -22 -5 -30 -11 -13 -8 -13 -7 -1 8 7 9 17 15 21 12 4 -2 16 5 26 18
l19 22 -22 -19 c-27 -23 -30 -11 -6 18 10 12 -1 4 -23 -17 -22 -20 -43 -35
-46 -31 -4 3 -4 -5 -1 -18 6 -24 6 -24 -15 3 -10 14 -10 20 2 31 8 9 11 20 6
28 -5 8 -12 0 -20 -24 -7 -21 -14 -35 -17 -32 -3 2 -17 0 -32 -5 l-26 -9 25
19 c13 11 28 17 32 15 4 -3 8 0 8 5 0 14 -27 14 -35 1 -9 -15 -38 -13 -29 3 4
6 -8 -3 -27 -21 -21 -21 -41 -31 -52 -28 -10 2 -21 -2 -24 -10 -3 -8 -10 -14
-15 -14 -6 0 -4 7 3 17 8 9 13 19 12 22 -2 3 1 6 6 6 5 0 13 3 17 8 4 4 2 7
-4 7 -7 0 -9 7 -5 18 3 9 -4 4 -16 -11 -16 -19 -27 -25 -35 -18 -8 7 -15 4
-24 -9 -16 -27 -49 -43 -49 -25 0 8 4 12 8 10 4 -3 23 10 42 28 50 46 59 52
92 55 17 2 34 7 39 13 6 5 -5 4 -25 -1 -42 -12 -42 -12 -34 0 3 6 1 10 -4 10
-6 0 -11 -3 -11 -7 0 -11 -58 -43 -76 -43 -12 0 -18 -12 -16 -31 1 -4 -8 -5
-18 -2 -12 3 -20 0 -20 -8 0 -7 -3 -9 -6 -6 -4 4 -1 15 7 24 7 10 9 15 5 11
-5 -4 -15 -3 -23 4 -11 9 -12 7 -7 -7 5 -13 4 -16 -4 -11 -16 10 -15 -6 1 -24
6 -8 2 -6 -9 3 -16 14 -23 15 -26 6 -3 -10 -6 -10 -11 -2 -9 15 43 64 57 56 6
-3 8 -3 4 2 -5 5 1 14 12 22 11 8 20 19 20 25 0 7 -4 7 -13 -1 -8 -6 -18 -7
-22 -3 -5 4 -5 2 -2 -4 3 -6 -8 -18 -25 -28 l-30 -18 12 23 c11 23 10 23 -4 5
-9 -11 -16 -23 -16 -28 0 -10 -44 -11 -53 -1 -4 3 -1 13 6 22 11 14 10 14 -5
2 -10 -7 -16 -17 -13 -21 7 -11 -56 -39 -73 -32 -11 4 -13 1 -7 -9 4 -8 4 -11
0 -6 -5 4 -17 0 -27 -10 -10 -9 -18 -11 -18 -6 0 6 7 14 16 17 8 3 12 11 8 17
-4 8 -9 7 -15 -2 -5 -8 -9 -9 -9 -4 0 22 22 34 40 23 14 -9 23 -7 45 10 27 22
24 30 -4 13 -9 -6 -22 -6 -31 -1 -11 6 -24 4 -38 -6 -16 -11 -22 -12 -22 -3 0
8 -9 4 -22 -8 -32 -28 -53 -40 -43 -23 6 10 4 12 -9 7 -10 -4 -20 -7 -22 -7
-2 0 -4 -7 -4 -15 0 -8 -5 -15 -10 -15 -7 0 -7 6 -1 19 19 34 0 30 -40 -10
-21 -21 -39 -35 -39 -31 0 13 36 52 48 52 6 0 14 10 17 21 6 17 9 19 16 8 12
-21 62 -18 77 3 8 10 19 17 25 16 17 -3 57 21 57 34 0 7 -4 7 -13 -1 -8 -6
-17 -8 -20 -4 -4 3 -7 1 -7 -5 0 -7 -8 -12 -18 -12 -10 0 -27 -7 -38 -15 -12
-8 -24 -11 -28 -8 -3 3 -6 1 -6 -5 0 -7 -4 -12 -10 -12 -16 0 -11 36 7 52 10
9 32 23 48 32 28 16 19 16 -22 -1 -12 -5 -14 -3 -9 8 5 8 -6 -2 -24 -21 -18
-19 -35 -34 -38 -32 -4 1 -7 -2 -7 -8 0 -5 -13 -22 -29 -37 -20 -18 -28 -21
-23 -10 4 10 2 17 -6 17 -7 1 6 17 28 36 29 26 32 31 10 16 -24 -16 -35 -18
-50 -9 -18 9 -18 9 -7 -5 8 -10 9 -18 3 -22 -6 -4 -8 -13 -5 -20 3 -8 0 -17
-5 -21 -6 -3 -8 -12 -5 -18 4 -7 4 -9 -1 -5 -4 4 -15 2 -24 -4 -9 -7 -6 -1 7
13 25 29 30 48 7 29 -8 -7 -15 -8 -15 -2 0 5 10 17 23 26 l22 17 -25 -7 c-14
-3 -33 -16 -42 -28 -17 -20 -17 -19 -2 21 11 28 27 47 50 59 18 10 31 20 29
22 -2 3 -16 -3 -30 -12 -29 -19 -32 -12 -8 18 9 12 -4 0 -29 -25 -32 -32 -52
-45 -68 -42 -11 2 -19 -1 -16 -5 3 -5 -4 -14 -14 -22 -10 -8 -16 -18 -13 -23
3 -6 1 -7 -5 -3 -7 4 -12 3 -12 -2 0 -5 -11 -14 -24 -20 -23 -10 -24 -9 -20
15 3 14 9 34 15 45 7 14 6 18 -5 18 -9 0 -13 -6 -10 -14 3 -8 -4 -24 -15 -35
-11 -11 -15 -21 -10 -23 5 -2 -5 -12 -23 -23 l-33 -19 33 41 c39 50 41 63 5
28 -25 -23 -28 -23 -35 -7 -3 9 -7 13 -7 7 -1 -5 -12 -15 -26 -21 -23 -11 -24
-10 -14 7 13 25 -6 26 -20 2 -9 -16 -10 -16 -11 -2 0 22 29 33 46 18 11 -9 14
-7 15 7 1 11 1 22 0 27 0 4 4 7 9 7 6 0 10 6 10 13 -1 6 -10 1 -21 -12 -11
-13 -22 -21 -26 -18 -3 4 -12 2 -20 -4 -9 -9 -13 -8 -13 0 0 6 5 11 10 11 21
0 25 2 33 15 4 8 23 22 42 31 19 9 35 21 35 26 0 5 -19 -3 -42 -17 -24 -14
-54 -31 -68 -38 -14 -6 -29 -17 -33 -24 -4 -7 -14 -13 -21 -13 -8 0 -17 -7
-20 -16 -4 -9 -8 -15 -11 -13 -6 7 18 71 38 103 10 15 16 30 13 34 -3 3 -6 -1
-6 -9 0 -12 -2 -12 -9 0 -8 12 -11 9 -16 -12 -4 -15 -10 -25 -14 -23 -3 2 -7
-8 -8 -22 0 -15 -6 -28 -12 -30 -6 -2 -11 -9 -11 -17 0 -7 -6 -18 -14 -24 -11
-9 -17 -8 -29 4 -9 8 -22 15 -29 15 -16 0 42 49 59 50 6 0 15 4 18 10 7 11
-23 2 -42 -12 -7 -6 -17 -7 -23 -3 -6 4 -9 3 -8 -2 3 -11 -32 -52 -56 -65 -13
-7 -9 4 15 39 32 47 23 45 -31 -7 -14 -14 -27 -29 -29 -35 -10 -29 -14 -34
-29 -40 -13 -5 -13 -2 3 15 10 11 13 20 6 20 -7 0 -6 9 5 25 9 14 15 28 12 30
-2 3 -15 -15 -27 -40 -22 -43 -43 -56 -56 -35 -4 6 -1 9 5 8 6 -2 19 7 27 20
10 15 12 22 4 22 -7 0 -9 4 -6 10 3 6 -1 7 -9 4 -9 -3 -16 -10 -16 -16 0 -5 4
-7 8 -4 5 3 9 -1 9 -9 0 -8 -4 -12 -9 -9 -4 3 -16 -1 -27 -8 -18 -13 -21 -18
-21 -38 0 -5 -5 -10 -11 -10 -6 0 -7 5 -2 13 4 6 6 20 4 31 -1 11 2 16 8 12 7
-4 8 -1 5 8 -3 9 -11 16 -17 16 -6 0 -8 -3 -4 -6 3 -3 1 -19 -5 -34 -6 -19
-14 -27 -24 -23 -9 3 -14 0 -12 -7 2 -7 -2 -14 -8 -17 -12 -4 -10 49 2 69 4 7
2 8 -4 4 -7 -4 -12 -5 -12 -2 0 2 22 19 50 37 27 18 48 34 46 37 -3 2 -18 -5
-34 -17 -17 -12 -34 -21 -40 -21 -5 0 -15 -7 -22 -15 -7 -8 -18 -15 -24 -15
-7 0 -7 3 -1 8 17 12 17 41 1 38 -9 -1 -19 -6 -23 -11 -4 -4 -2 -5 6 0 10 5
12 4 7 -4 -4 -6 -12 -9 -17 -6 -5 4 -9 2 -9 -4 0 -5 6 -11 13 -14 6 -2 0 -4
-15 -3 -16 0 -28 4 -28 8 0 14 44 48 62 48 10 0 18 4 18 8 0 4 11 8 25 8 14 0
24 -5 22 -10 -2 -6 -10 -11 -17 -11 -7 0 -15 -7 -17 -15 -4 -12 -3 -12 5 -2 5
8 13 13 17 12 4 -1 15 7 25 18 18 19 18 20 -18 18 -20 -1 -42 -4 -47 -7 -6 -4
-23 -9 -39 -13 -26 -6 -28 -5 -17 8 9 10 10 16 3 16 -14 0 -34 -35 -25 -44 3
-3 1 -6 -5 -6 -7 0 -12 6 -12 13 0 7 -3 8 -8 2 -4 -5 -14 -14 -23 -20 -10 -5
-32 -21 -50 -34 -31 -23 -32 -23 -15 -3 11 12 16 25 13 29 -4 3 -7 2 -7 -4 0
-6 -7 -13 -15 -17 -13 -4 -13 -2 -5 14 5 10 15 22 20 25 13 8 13 25 0 25 -5 0
-10 -6 -10 -13 0 -8 -9 -22 -20 -32 -10 -9 -18 -22 -17 -29 1 -6 -6 -10 -17
-8 -10 2 -15 -1 -11 -7 4 -7 0 -8 -11 -4 -12 4 -15 3 -10 -5 4 -7 2 -12 -3
-12 -14 0 -14 13 1 28 9 9 9 12 -1 12 -8 0 -5 10 9 30 12 17 19 30 15 30 -3 0
11 21 31 48 l38 47 -57 -54 c-31 -30 -55 -58 -54 -62 2 -6 -3 -9 -19 -9 -4 0
-1 7 6 15 7 8 9 15 5 15 -5 0 0 10 10 23 11 12 5 9 -12 -8 -17 -16 -29 -32
-28 -35 2 -3 -16 -5 -39 -6 -37 0 -42 3 -38 18 2 10 14 25 25 33 12 8 18 17
15 21 -7 7 -52 -32 -54 -47 -1 -5 -2 -13 -3 -19 0 -5 -6 -10 -12 -10 -8 0 -7
6 2 16 12 15 11 16 -10 9 -28 -8 -62 -41 -53 -50 4 -3 -1 -3 -10 0 -9 4 -19 2
-22 -4 -4 -6 -13 -8 -21 -4 -9 3 -15 -1 -15 -10 0 -8 -7 -17 -15 -20 -12 -5
-12 -2 -2 21 6 15 20 36 29 46 10 11 18 23 18 28 0 4 7 8 16 8 8 0 13 4 10 9
-5 7 41 56 54 57 3 0 14 6 25 13 15 9 16 11 3 7 -25 -8 -22 10 4 28 12 9 18
16 12 16 -6 0 -21 -12 -35 -26 -35 -38 -136 -104 -145 -96 -5 4 -2 -2 6 -12
13 -17 13 -18 1 -11 -10 6 -28 -7 -64 -46 -27 -30 -47 -46 -43 -36 3 10 6 23
6 28 0 5 7 9 15 9 8 0 15 4 15 9 0 6 12 22 26 38 20 21 24 34 20 57 -5 22 -1
32 14 43 11 8 20 19 20 24 0 5 -10 1 -22 -10 -11 -11 -25 -18 -29 -15 -5 3 -6
-1 -3 -9 6 -17 -15 -35 -55 -47 -41 -11 -40 -3 2 15 31 14 31 14 6 15 -14 0
-34 -9 -44 -20 -10 -11 -24 -20 -32 -20 -7 0 -13 -5 -13 -12 0 -6 -3 -8 -6 -5
-4 4 -20 -3 -35 -14 -16 -11 -29 -15 -29 -9 0 6 10 14 22 19 l22 8 -22 5 c-13
4 -23 0 -26 -8 -3 -8 -13 -14 -21 -14 -9 0 -13 -5 -10 -10 4 -6 11 -7 17 -4 7
4 8 2 4 -5 -6 -9 -11 -9 -22 0 -11 9 -11 15 4 34 9 13 24 26 33 28 9 3 20 19
24 36 4 17 10 29 14 27 4 -3 7 4 7 15 0 26 -5 24 -19 -9z m193 -76 c0 -8 -11
-21 -25 -30 -25 -16 -25 -16 -13 9 6 14 15 25 20 25 5 0 6 5 2 12 -4 7 -3 8 4
4 7 -4 12 -13 12 -20z m-76 -18 c-5 -7 -2 -9 9 -5 14 5 14 3 -1 -23 -16 -28
-58 -51 -49 -27 3 7 10 11 16 10 6 -2 10 0 10 5 -1 4 0 10 1 15 1 4 4 12 5 17
1 6 3 12 4 15 0 3 4 5 7 5 3 0 2 -5 -2 -12z m-24 -2 c0 -2 -8 -10 -17 -17 -16
-13 -17 -12 -4 4 13 16 21 21 21 13z m-57 -45 c-5 -18 -63 -82 -63 -69 0 17
13 37 21 32 5 -3 9 0 9 7 0 11 28 49 36 49 1 0 0 -9 -3 -19z m-122 -14 c-10
-9 -11 -8 -5 6 3 10 9 15 12 12 3 -3 0 -11 -7 -18z m541 1 c-18 -21 -76 -53
-68 -37 4 8 0 5 -9 -6 -16 -19 -17 -19 -13 -1 1 10 19 27 38 37 41 22 68 26
52 7z m270 5 c-10 -4 -10 -8 -1 -19 9 -11 8 -14 -4 -14 -13 0 -15 13 -8 38 1
1 7 2 14 1 9 0 9 -2 -1 -6z m841 -13 c-10 -11 -19 -20 -21 -20 -1 0 2 9 8 20
6 11 15 20 20 20 6 0 2 -9 -7 -20z m392 2 c-3 -3 -11 0 -18 7 -9 10 -8 11 6 5
10 -3 15 -9 12 -12z m945 -2 c-6 -11 -13 -20 -16 -20 -2 0 0 9 6 20 6 11 13
20 16 20 2 0 0 -9 -6 -20z m-3034 -21 c-18 -26 -64 -60 -51 -38 13 23 48 59
57 59 5 0 3 -9 -6 -21z m73 18 c-2 -1 -13 -9 -24 -17 -19 -14 -19 -14 -6 3 7
9 18 17 24 17 6 0 8 -1 6 -3z m565 -13 c3 -8 2 -12 -4 -9 -5 3 -14 -4 -20 -16
-16 -29 -23 -17 -9 15 14 30 24 33 33 10z m-404 3 c0 -2 -16 -19 -37 -38 -37
-35 -37 -23 0 19 18 19 37 29 37 19z m580 -2 c0 -2 -10 -9 -22 -15 -22 -11
-22 -10 -4 4 21 17 26 19 26 11z m477 -14 c12 -11 24 -17 29 -13 4 4 4 1 0 -5
-4 -7 -12 -13 -18 -13 -6 0 -19 -7 -29 -16 -10 -9 -26 -14 -35 -10 -16 6 -16
8 0 25 9 10 14 25 10 35 -9 23 17 21 43 -3z m133 -4 c0 -7 -4 -6 -10 3 -8 13
-10 12 -10 -4 0 -11 -3 -17 -6 -13 -4 3 -4 13 0 22 6 18 26 11 26 -8z m774 -2
c-9 -13 -24 -23 -34 -22 -10 1 -17 4 -16 7 2 3 5 12 8 20 3 8 17 16 31 16 25
2 25 1 11 -21z m-1239 -14 c-4 -9 -8 -25 -11 -35 -6 -33 -20 -37 -19 -7 0 16
3 27 7 24 5 -2 8 -2 8 1 0 2 3 13 7 23 6 16 5 17 -13 3 -18 -14 -18 -14 -5 2
16 21 35 13 26 -11z m1816 15 c-9 -11 -9 -15 0 -18 8 -3 7 -7 -3 -16 -12 -10
-14 -8 -12 11 1 12 3 25 3 30 1 4 6 7 12 7 8 0 8 -4 0 -14z m-3291 0 c0 -2
-11 -11 -25 -20 -28 -19 -33 -15 -9 8 14 15 34 22 34 12z m980 -26 c-12 -16
-24 -30 -26 -30 -3 0 4 14 16 30 12 17 24 30 26 30 3 0 -4 -13 -16 -30z m2280
20 c0 -5 -12 -10 -27 -9 l-28 1 25 8 c14 4 26 8 28 9 1 1 2 -3 2 -9z m-1231
-3 c-2 -1 -13 -9 -24 -17 -19 -14 -19 -14 -6 3 7 9 18 17 24 17 6 0 8 -1 6 -3z
m601 -7 c0 -5 -8 -10 -17 -10 -15 0 -16 2 -3 10 19 12 20 12 20 0z m420 0 c0
-5 -2 -10 -4 -10 -3 0 -8 5 -11 10 -3 6 -1 10 4 10 6 0 11 -4 11 -10z m90 0
c0 -5 -5 -10 -11 -10 -5 0 -7 5 -4 10 3 6 8 10 11 10 2 0 4 -4 4 -10z m268
-10 c-7 -11 -16 -20 -21 -20 -4 0 -5 -4 -2 -10 3 -5 1 -10 -4 -10 -17 0 -13
11 11 37 26 28 32 29 16 3z m131 -26 c-5 -6 -6 -14 -2 -18 4 -4 -1 -4 -11 0
-12 5 -14 9 -6 14 8 5 9 17 5 31 -7 23 -7 23 8 4 10 -12 12 -24 6 -31z m-3249
17 c-14 -27 -27 -33 -33 -16 -4 9 -1 12 7 9 7 -3 16 2 19 10 4 9 9 16 12 16 3
0 1 -9 -5 -19z m26 -18 c-18 -33 -21 -26 -6 13 6 15 13 24 16 21 3 -3 -1 -18
-10 -34z m272 17 c-7 -10 -14 -17 -17 -15 -4 4 18 35 25 35 2 0 -1 -9 -8 -20z
m1132 0 c-6 -11 -13 -20 -16 -20 -2 0 0 9 6 20 6 11 13 20 16 20 2 0 0 -9 -6
-20z m1200 16 c0 -2 -7 -7 -16 -10 -8 -3 -12 -2 -9 4 6 10 25 14 25 6z m185
-6 c3 -6 -1 -7 -9 -4 -18 7 -21 14 -7 14 6 0 13 -4 16 -10z m-2926 -22 c-6
-12 -21 -31 -31 -42 l-20 -21 7 25 c4 14 12 27 16 28 5 2 9 10 9 18 0 8 7 14
15 14 13 0 14 -4 4 -22z m1411 12 c0 -5 -5 -10 -11 -10 -5 0 -7 5 -4 10 3 6 8
10 11 10 2 0 4 -4 4 -10z m530 6 c0 -2 -8 -10 -17 -17 -16 -13 -17 -12 -4 4
13 16 21 21 21 13z m1090 -6 c-8 -5 -22 -9 -30 -9 -10 0 -8 3 5 9 27 12 43 12
25 0z m-3225 -9 c-3 -5 -1 -12 5 -16 14 -8 3 -25 -16 -25 -10 0 -12 5 -7 13 4
6 8 15 9 20 3 15 4 17 10 17 3 0 3 -4 -1 -9z m3065 5 c0 -2 -8 -10 -17 -17
-16 -13 -17 -12 -4 4 13 16 21 21 21 13z m33 -11 c-3 -9 -8 -14 -10 -11 -3 3
-2 9 2 15 9 16 15 13 8 -4z m-1428 -25 c-9 -16 -18 -30 -21 -30 -2 0 2 14 11
30 9 17 18 30 21 30 2 0 -2 -13 -11 -30z m2119 -4 c-3 -9 -10 -13 -15 -10 -19
12 -30 -8 -12 -23 15 -13 14 -13 -8 0 -20 12 -29 13 -38 4 -8 -8 -11 -8 -11 1
0 10 81 54 88 48 1 -2 0 -11 -4 -20z m-3484 4 c0 -5 -5 -10 -11 -10 -5 0 -7 5
-4 10 3 6 8 10 11 10 2 0 4 -4 4 -10z m940 -11 c-7 -11 -14 -18 -17 -15 -3 3
0 12 7 21 18 21 23 19 10 -6z m1965 11 c-3 -5 -11 -10 -16 -10 -6 0 -7 5 -4
10 3 6 11 10 16 10 6 0 7 -4 4 -10z m430 -20 c-3 -5 -11 -10 -16 -10 -6 0 -7
5 -4 10 3 6 11 10 16 10 6 0 7 -4 4 -10z m95 -30 c0 -5 -12 -10 -27 -9 l-28 1
25 8 c14 4 26 8 28 9 1 1 2 -3 2 -9z m181 -17 c-5 -10 -21 -18 -35 -18 -13 -1
-22 3 -19 8 3 4 11 6 18 3 8 -3 19 2 25 10 17 19 23 18 11 -3z m-4091 3 c0 -2
-8 -10 -17 -17 -16 -13 -17 -12 -4 4 13 16 21 21 21 13z m3841 -19 c-10 -9
-11 -8 -5 6 3 10 9 15 12 12 3 -3 0 -11 -7 -18z m249 -43 c0 -3 -5 -2 -10 1
-6 4 -17 2 -25 -5 -11 -9 -12 -7 -8 9 4 17 9 19 24 10 10 -5 19 -12 19 -15z
m-4143 -59 c0 -8 -4 -12 -9 -9 -5 3 -6 10 -3 15 9 13 12 11 12 -6z m4389 -22
c-15 -4 -16 -7 -5 -14 10 -6 8 -8 -8 -6 -17 1 -19 4 -11 14 6 7 18 12 27 12
12 -1 11 -2 -3 -6z m-121 -13 c3 -6 -1 -7 -9 -4 -18 7 -21 14 -7 14 6 0 13 -4
16 -10z m76 -43 c-10 -9 -11 -8 -5 6 3 10 9 15 12 12 3 -3 0 -11 -7 -18z m213
-54 c-10 -7 -22 -13 -26 -13 -5 0 -3 6 4 13 7 8 19 14 26 14 11 0 10 -4 -4
-14z m-4547 -43 c-3 -21 -17 -40 -17 -22 0 13 11 42 16 42 2 0 3 -9 1 -20z
m4543 16 c0 -2 -7 -7 -16 -10 -8 -3 -12 -2 -9 4 6 10 25 14 25 6z m-4601 -28
c-17 -34 -19 -34 -19 -5 0 18 5 27 15 27 13 0 14 -4 4 -22z m4752 -27 c-16
-10 -3 -20 21 -16 11 2 15 -2 11 -11 -5 -13 -14 -11 -40 9 -14 10 -8 27 10 27
8 0 8 -3 -2 -9z m-4748 -26 c-3 -9 -8 -14 -10 -11 -3 3 -2 9 2 15 9 16 15 13
8 -4z m47 5 c0 -5 -5 -10 -11 -10 -5 0 -7 5 -4 10 3 6 8 10 11 10 2 0 4 -4 4
-10z m-59 -93 c-8 -8 -11 -4 -11 14 0 33 14 47 18 19 2 -12 -1 -27 -7 -33z m6
-59 c-3 -7 -5 -2 -5 12 0 14 2 19 5 13 2 -7 2 -19 0 -25z m4963 -38 c-35 -24
-54 -31 -30 -11 14 11 30 21 35 21 6 0 3 -5 -5 -10z m91 -13 c-13 -13 -26 -3
-16 12 3 6 11 8 17 5 6 -4 6 -10 -1 -17z m-71 -11 c0 -3 -4 -8 -10 -11 -5 -3
-10 -1 -10 4 0 6 5 11 10 11 6 0 10 -2 10 -4z m-4961 -68 c-2 -2 -17 -14 -33
-28 -27 -23 -28 -23 -17 -3 10 20 25 30 45 32 5 1 7 0 5 -1z m41 -73 c0 -8 -4
-15 -10 -15 -5 0 -7 7 -4 15 4 8 8 15 10 15 2 0 4 -7 4 -15z m5020 -53 c-8 -3
-24 -9 -35 -14 -14 -7 -13 -4 5 11 13 10 29 17 34 13 6 -3 4 -8 -4 -10z
m-5066 -46 c-3 -14 -10 -26 -15 -26 -5 0 -6 7 -4 15 3 8 7 22 10 31 9 27 17 9
9 -20z m-13 -63 c-12 -20 -14 -14 -5 12 4 9 9 14 11 11 3 -2 0 -13 -6 -23z
m5139 23 c0 -2 -8 -10 -17 -17 -16 -13 -17 -12 -4 4 13 16 21 21 21 13z m64
-41 c-4 -8 -11 -12 -16 -9 -6 4 -5 10 3 15 19 12 19 11 13 -6z m-5201 -35 c-3
-12 -8 -18 -11 -16 -3 3 -11 -6 -19 -20 -15 -31 -16 -37 -4 -30 15 10 0 -32
-17 -46 -14 -12 -14 -10 -2 12 8 15 9 25 3 27 -17 6 -2 53 25 73 31 25 31 25
25 0z m5267 -84 c0 -2 -8 -10 -17 -17 -16 -13 -17 -12 -4 4 13 16 21 21 21 13z
m-5266 -41 c-4 -8 -10 -15 -15 -15 -4 0 -6 7 -3 15 4 8 10 15 15 15 4 0 6 -7
3 -15z m5320 -30 c-10 -8 -23 -14 -29 -14 -5 0 -1 6 9 14 11 8 24 15 30 15 5
0 1 -7 -10 -15z m41 -15 c-10 -11 -21 -17 -24 -14 -3 3 3 12 13 20 28 20 32
17 11 -6z m-5365 -17 c0 -21 -3 -24 -9 -14 -5 8 -7 20 -4 28 8 21 13 15 13
-14z m5413 -27 c15 -22 15 -25 1 -37 -9 -7 -23 -14 -33 -15 -13 -2 -12 0 3 12
11 8 16 14 10 14 -5 0 -3 4 4 9 11 6 10 11 -3 25 -9 9 -12 16 -7 16 5 0 17
-11 25 -24z m-5381 -30 c-6 -20 -6 -20 -12 4 -8 29 -1 48 10 30 4 -7 5 -22 2
-34z m-35 -8 c-3 -8 -6 -5 -6 6 -1 11 2 17 5 13 3 -3 4 -12 1 -19z m2428 2 c3
-5 1 -10 -4 -10 -6 0 -11 5 -11 10 0 6 2 10 4 10 3 0 8 -4 11 -10z m125 -30
c0 -13 -1 -13 -10 0 -5 8 -10 22 -10 30 0 13 1 13 10 0 5 -8 10 -22 10 -30z
m123 -27 c-8 -21 -22 -5 -16 18 4 15 8 17 13 8 5 -7 6 -18 3 -26z m-148 -23
c4 -16 11 -33 17 -36 7 -5 9 0 6 14 -4 12 -3 22 2 22 18 0 20 -36 5 -81 -9
-27 -15 -57 -13 -66 3 -11 10 3 19 32 l15 50 22 -70 c13 -39 27 -77 32 -85 14
-22 22 -6 11 23 -9 22 -7 27 10 32 10 4 17 10 15 13 -2 4 2 18 9 32 l13 25 7
-28 c4 -15 12 -27 17 -27 6 0 7 9 3 23 -11 36 -14 77 -4 71 5 -3 9 -14 9 -25
0 -10 4 -19 9 -19 5 0 8 7 7 16 0 9 4 19 9 21 6 2 12 -11 13 -29 3 -44 21 -98
33 -98 5 0 9 19 9 43 0 23 5 49 10 57 8 12 10 11 10 -7 0 -13 5 -23 10 -23 6
0 10 20 10 44 0 52 20 74 21 24 1 -45 8 -84 20 -111 7 -16 8 -6 6 43 -2 36 -2
71 0 78 7 17 20 15 27 -5 3 -10 9 -25 14 -33 5 -8 17 -37 27 -65 16 -46 20
-67 24 -132 0 -13 4 -23 9 -23 4 0 7 35 7 78 0 61 5 87 24 124 14 27 26 46 29
44 2 -3 5 -27 5 -55 2 -57 17 -71 17 -16 0 31 3 35 25 35 19 0 23 4 19 18 -5
14 -4 15 5 2 6 -8 11 -26 11 -39 0 -16 4 -21 15 -17 12 4 14 -1 11 -22 -12
-71 -15 -142 -6 -142 6 0 10 13 10 29 0 17 5 33 10 36 6 4 7 11 4 17 -5 7 -1
9 9 5 13 -5 17 -1 18 16 0 17 5 13 19 -18 10 -22 19 -50 19 -62 1 -13 7 -23
15 -23 11 0 13 7 6 30 -7 23 -5 30 6 30 8 0 14 5 14 10 0 6 4 10 9 10 5 0 8
-15 5 -34 -3 -22 1 -36 10 -39 7 -3 16 -24 19 -47 3 -23 10 -47 16 -53 9 -9
10 2 5 38 -14 121 -15 148 -6 157 6 6 12 -20 16 -74 10 -113 32 -204 56 -230
24 -26 26 -14 5 36 -8 20 -15 46 -16 58 -1 49 8 129 16 136 4 4 5 -6 1 -22 -6
-23 -4 -27 8 -23 17 7 28 -65 14 -102 -7 -19 -5 -22 7 -17 13 4 14 2 5 -14 -8
-16 -8 -20 4 -20 8 0 18 -9 21 -20 10 -33 23 -23 19 15 -1 19 -5 39 -8 44 -3
4 6 23 19 41 14 19 25 30 25 24 0 -5 -7 -18 -15 -28 -17 -22 -19 -36 -7 -36 5
0 14 10 21 23 11 22 11 22 6 -3 -12 -51 -14 -66 -24 -140 -5 -41 -12 -83 -16
-92 -4 -11 -3 -18 4 -18 6 0 11 5 11 11 0 15 48 111 62 124 8 7 9 4 4 -10 -12
-31 -16 -114 -6 -120 5 -3 11 3 15 14 6 20 45 59 45 45 0 -5 -9 -23 -19 -40
-20 -32 -37 -94 -26 -94 3 0 12 15 20 33 8 18 14 25 15 15 0 -10 5 -18 11 -18
6 0 9 6 6 14 -3 8 0 22 7 31 15 20 15 18 17 -65 1 -41 2 -43 15 -26 7 11 12
30 10 43 -3 13 0 23 5 23 5 0 9 -7 9 -16 0 -8 5 -12 10 -9 14 8 13 2 -5 -31
-8 -16 -15 -38 -15 -49 0 -11 -12 -33 -26 -50 -39 -44 -78 -105 -72 -111 3 -3
16 10 29 28 13 18 31 42 41 52 10 11 18 23 18 28 0 4 4 8 9 8 4 0 6 -11 3 -25
-6 -35 13 -31 28 6 11 26 15 28 23 14 6 -12 0 -30 -25 -68 -46 -69 -81 -144
-75 -159 3 -8 9 -2 15 12 22 57 54 116 73 140 14 16 19 19 15 8 -3 -11 0 -18
8 -18 11 0 9 -17 -10 -77 -24 -78 -31 -139 -15 -129 4 3 11 27 14 54 7 58 39
161 45 144 2 -6 -1 -27 -7 -45 -14 -41 -22 -127 -12 -127 4 0 13 6 20 13 7 7
6 1 -3 -18 -9 -17 -11 -32 -6 -35 5 -3 3 -17 -5 -33 -13 -25 -12 -27 5 -27 13
0 18 -6 15 -20 -5 -24 14 -37 27 -19 7 11 8 9 5 -6 -3 -11 -8 -38 -12 -60 -7
-43 -29 -115 -49 -155 -14 -29 -21 -190 -8 -190 5 0 8 18 7 40 -1 28 3 40 12
40 8 0 16 8 20 18 9 25 42 93 59 122 15 24 15 24 9 -15 -4 -22 -10 -44 -14
-50 -16 -21 -33 -98 -23 -104 6 -3 -12 -31 -40 -61 -51 -56 -85 -110 -70 -110
5 0 26 25 47 56 22 31 41 51 43 45 3 -9 8 -8 19 1 14 11 15 10 8 -12 -4 -14
-19 -43 -33 -64 -15 -21 -31 -46 -37 -55 -5 -9 -13 -18 -16 -21 -15 -13 -58
-114 -52 -123 3 -6 16 10 28 34 12 24 34 64 48 89 21 35 27 40 27 23 0 -36 17
-27 25 13 4 23 10 33 16 27 13 -13 -14 -75 -54 -121 -61 -68 -99 -122 -95
-133 2 -6 26 17 53 51 34 43 51 57 53 46 5 -22 22 -10 22 15 0 11 5 17 10 14
7 -4 7 -13 0 -24 -6 -12 -5 -22 3 -30 9 -10 9 -11 -3 -6 -12 4 -22 -11 -42
-70 -26 -79 -21 -112 9 -51 9 20 21 36 25 36 13 0 5 -32 -12 -52 -25 -28 -52
-78 -41 -78 5 0 12 6 15 13 4 6 4 2 2 -10 -2 -13 0 -26 5 -29 12 -7 2 -43 -18
-62 -7 -8 -20 -28 -27 -46 -7 -18 -30 -50 -50 -71 -38 -41 -71 -93 -63 -101 2
-3 17 12 33 33 30 41 46 55 53 47 2 -2 0 -14 -6 -27 -45 -95 -66 -166 -45
-153 7 4 12 14 12 22 0 8 6 14 13 14 8 0 19 12 26 26 6 15 14 24 17 22 9 -9
-28 -82 -65 -127 -50 -61 -111 -194 -111 -241 0 -12 -28 -46 -66 -83 -63 -59
-144 -162 -157 -200 -4 -9 -11 -17 -17 -17 -6 0 -8 5 -4 12 4 7 3 8 -5 4 -6
-4 -9 -12 -6 -17 4 -5 -6 -9 -21 -9 -25 0 -26 2 -13 18 8 10 3 7 -10 -7 -29
-31 -85 -54 -126 -52 -16 0 -25 -3 -19 -7 7 -4 -1 -14 -23 -25 -19 -9 -32 -13
-29 -8 4 5 3 11 -1 14 -5 2 -3 2 4 1 6 -2 17 4 25 13 11 14 10 15 -10 9 -27
-9 -27 -6 -2 47 l21 42 -20 -23 c-12 -13 -26 -41 -32 -62 -7 -22 -18 -41 -25
-44 -14 -5 -9 19 9 42 5 6 6 12 3 12 -4 0 -2 9 4 20 6 11 8 20 5 20 -3 0 -15
-21 -25 -46 -11 -25 -24 -42 -30 -39 -5 3 -10 1 -10 -5 0 -6 -5 -8 -12 -4 -7
4 -8 3 -4 -4 4 -6 14 -8 24 -5 13 4 13 2 -3 -10 -17 -14 -22 -14 -31 -2 -7 9
-15 10 -25 4 -33 -21 -29 -7 6 21 21 17 45 28 52 26 7 -3 13 1 13 10 0 13 -9
11 -47 -10 -25 -15 -48 -24 -51 -21 -3 3 -1 5 4 5 5 0 10 9 11 20 3 32 -6 24
-27 -24 -10 -25 -27 -47 -39 -51 -12 -3 -21 -11 -21 -16 0 -5 -6 -9 -12 -9 -7
0 0 12 15 26 18 15 27 30 23 40 -4 11 -2 15 7 11 8 -3 14 1 14 8 0 10 -7 11
-24 4 -12 -5 -23 -5 -23 -1 0 4 -6 0 -13 -9 -17 -21 -47 -31 -48 -16 0 9 -2 9
-6 0 -8 -21 -22 -15 -16 7 3 11 11 20 18 20 25 0 33 24 14 42 -17 16 -19 15
-30 -12 -7 -15 -26 -36 -41 -45 -15 -9 -28 -20 -28 -26 0 -5 -5 -9 -11 -9 -8
0 -7 6 2 17 12 15 12 16 -3 10 -10 -3 -20 -2 -23 3 -4 6 -1 10 4 10 6 0 11 5
11 11 0 8 -5 8 -15 -1 -8 -7 -15 -9 -15 -6 0 10 31 57 54 85 l21 24 -23 -14
c-12 -8 -25 -22 -28 -32 -3 -9 -10 -15 -15 -11 -5 3 -9 2 -8 -3 4 -15 -19 -58
-40 -77 -28 -25 -40 -12 -15 17 39 43 46 61 9 22 -20 -22 -41 -39 -46 -37 -5
1 -13 -6 -16 -15 -7 -20 -28 -43 -38 -43 -3 0 1 10 10 23 8 13 13 25 11 28 -2
2 7 15 21 29 19 20 22 21 17 6 -5 -14 -4 -17 5 -12 6 4 10 13 9 19 -1 7 3 22
10 35 8 14 9 22 2 22 -5 0 -10 -7 -10 -15 0 -14 -12 -20 -33 -16 -5 1 -6 -2
-4 -6 3 -5 -6 -16 -19 -26 -23 -17 -32 -12 -16 9 4 5 0 1 -10 -8 -9 -10 -22
-18 -30 -18 -7 0 -24 -7 -36 -16 -26 -18 -27 -15 -8 31 12 27 12 33 1 29 -7
-3 -18 -25 -25 -49 -7 -24 -18 -46 -26 -49 -18 -7 -18 4 2 32 8 12 13 31 9 41
-4 13 8 33 40 67 24 27 45 53 45 57 0 10 -66 -57 -102 -103 l-26 -33 -12 24
c-10 17 -10 24 -1 27 6 2 11 10 11 18 0 8 -6 11 -15 8 -8 -4 -12 -10 -10 -15
3 -4 -3 -14 -15 -21 -11 -7 -20 -19 -20 -27 0 -8 -3 -11 -6 -8 -4 3 -16 2 -28
-4 -19 -9 -19 -8 2 7 12 9 22 20 22 25 0 10 -41 -10 -51 -25 -4 -5 -24 -10
-44 -12 -34 -3 -36 -2 -19 10 10 8 22 12 26 10 5 -3 8 2 8 10 0 9 4 16 9 16 5
0 7 -10 4 -22 -3 -13 -3 -20 0 -17 4 3 8 16 10 30 4 26 75 72 163 104 27 10
54 22 59 27 11 10 -111 -34 -145 -52 -11 -6 -26 -8 -32 -4 -7 4 -8 3 -4 -4 4
-7 3 -12 -2 -12 -11 0 -105 -68 -137 -98 -11 -10 -27 -22 -35 -26 -8 -4 -6 1
6 11 11 10 20 26 18 36 -1 9 1 16 4 16 19 -3 23 3 12 16 -10 12 -9 16 4 21 9
4 20 4 23 0 4 -3 -1 -6 -11 -6 -9 0 -15 -4 -11 -10 6 -10 55 8 55 21 0 12 -33
16 -60 7 l-25 -8 25 20 c14 11 31 17 39 15 11 -5 12 -3 1 10 -7 9 -9 15 -4 14
26 -5 64 2 64 12 0 6 -9 9 -20 6 -11 -3 -20 0 -20 6 0 8 -4 7 -12 -1 -19 -19
-32 -14 -17 6 13 15 12 16 -3 3 -10 -7 -15 -17 -12 -22 3 -5 0 -9 -5 -9 -6 0
-11 6 -12 13 0 6 -4 3 -9 -8 -8 -18 -9 -17 -9 8 l-1 27 -30 -32 c-16 -18 -30
-27 -30 -20 0 6 0 15 0 20 0 4 5 8 10 8 6 1 15 2 20 3 6 0 10 5 10 11 0 5 -7
7 -15 4 -12 -5 -14 -2 -8 12 6 17 5 17 -11 5 -14 -12 -19 -12 -29 -1 -10 10
-8 12 7 6 13 -5 17 -2 13 9 -7 18 9 30 19 14 4 -7 18 1 40 25 18 20 42 37 53
37 33 2 39 4 45 10 12 12 -87 -1 -103 -13 -10 -8 -8 -4 3 10 11 12 36 32 55
44 20 12 38 25 41 29 3 3 15 9 28 13 12 4 22 12 22 19 0 8 -3 8 -12 -1 -7 -7
-22 -12 -35 -12 -12 0 -27 -9 -33 -19 -14 -28 -51 -37 -62 -17 -5 9 -15 14
-21 10 -7 -3 -1 4 13 15 30 25 15 28 -20 5 l-25 -17 20 21 c22 22 72 42 61 23
-5 -8 1 -8 21 1 42 18 51 29 16 19 -18 -5 -34 -7 -37 -4 -7 8 -79 -17 -98 -35
-16 -14 -18 -13 -18 2 0 18 55 76 71 76 6 0 22 8 36 17 15 10 33 18 41 18 9 0
17 6 20 14 3 10 -2 11 -19 6 -13 -4 -28 -8 -34 -9 -5 0 -12 -4 -15 -7 -3 -4
-13 4 -23 17 -15 20 -15 24 -3 24 8 0 18 5 22 12 5 8 0 9 -14 6 -12 -4 -22 -2
-22 3 0 5 11 11 25 15 14 3 22 10 19 15 -3 5 -14 4 -25 -2 -12 -6 -23 -8 -26
-6 -7 8 40 21 65 18 12 -1 22 2 22 8 0 6 -6 8 -14 5 -8 -3 -17 0 -22 7 -4 7
-3 10 4 5 6 -3 15 2 21 12 5 10 35 29 65 43 74 31 72 43 -1 14 -40 -17 -61
-21 -70 -14 -7 6 -18 7 -24 3 -9 -5 -10 -2 -6 10 4 9 3 14 -2 11 -5 -3 -12 -1
-15 4 -3 5 4 11 15 14 12 3 19 10 15 15 -3 5 1 9 9 9 8 0 12 -4 9 -9 -3 -4 0
-8 5 -8 14 0 14 37 1 45 -6 4 -8 11 -5 16 4 5 2 9 -4 9 -5 0 -13 -9 -16 -21
-4 -11 -9 -18 -12 -15 -4 3 -12 1 -20 -5 -15 -13 -15 -13 -18 18 -3 27 25 55
58 57 14 0 23 4 20 9 -2 4 4 7 14 8 16 0 16 1 -1 8 -17 7 -18 8 -3 14 9 3 19
2 22 -3 4 -6 11 -10 16 -10 6 0 3 7 -5 16 -9 8 -20 13 -25 9 -21 -12 -20 15 1
30 23 16 23 16 -11 10 -18 -3 -46 -12 -62 -20 -33 -18 -39 -18 -39 -4 0 5 6 7
13 3 8 -5 8 -2 -2 9 -12 15 -11 17 3 17 10 0 23 6 31 13 7 8 41 20 74 27 34 7
64 16 66 20 6 10 -28 9 -42 -3 -9 -6 -13 -6 -13 3 0 8 -4 9 -12 3 -7 -5 -26
-15 -43 -21 -28 -11 -28 -11 -11 3 11 8 27 15 35 15 14 0 14 2 1 10 -9 5 -19
5 -27 -2 -7 -6 -13 -7 -13 -3 0 4 -7 2 -16 -6 -14 -11 -15 -10 -12 7 4 27 23
44 47 44 12 0 21 5 21 11 0 5 -5 7 -12 3 -7 -4 -8 -3 -4 5 6 9 11 9 22 0 12
-10 13 -9 7 6 -5 15 -3 17 11 12 9 -4 15 -3 12 2 -3 5 -15 11 -26 14 -11 3
-18 1 -14 -4 3 -5 -2 -9 -11 -9 -9 0 -13 4 -10 10 3 6 -1 7 -9 4 -9 -3 -14
-10 -11 -14 6 -10 -21 -7 -31 3 -8 8 38 27 71 29 13 1 22 5 20 8 -2 4 -19 5
-37 3 -25 -3 -29 -2 -17 6 8 5 28 12 43 15 40 7 46 17 8 12 -18 -2 -32 1 -32
5 0 5 -5 9 -11 9 -5 0 -7 -6 -3 -12 5 -10 4 -10 -6 -1 -10 9 -5 18 21 42 19
17 37 31 42 31 4 0 7 5 7 11 0 6 -13 1 -29 -10 -15 -11 -32 -17 -36 -13 -5 4
-5 2 -2 -4 4 -7 -5 -14 -24 -18 -20 -4 -28 -10 -23 -17 5 -8 3 -9 -5 -5 -9 6
-8 13 6 26 10 9 22 15 27 12 5 -3 6 3 2 13 -5 14 0 24 16 37 l23 18 -22 0
c-13 0 -23 -5 -23 -12 0 -6 -3 -8 -6 -5 -9 9 16 38 27 31 5 -3 9 2 9 10 0 9 5
16 10 16 6 0 10 5 10 12 0 7 -7 5 -18 -5 -12 -11 -22 -13 -32 -7 -13 8 -12 10
2 10 10 0 27 10 39 23 12 12 19 17 16 12 -3 -6 -1 -17 5 -25 8 -12 9 -12 4 2
-3 11 3 26 16 38 18 17 19 20 5 20 -9 0 -32 -9 -52 -20 -45 -25 -55 -25 -29
-1 18 16 56 34 76 36 3 0 10 3 13 7 7 7 -43 1 -55 -7 -3 -2 -12 0 -20 6 -12 7
-11 9 5 10 11 1 24 1 28 0 5 -1 6 3 2 9 -3 5 -1 10 6 10 7 0 10 3 6 6 -3 3
-12 2 -19 -2 -21 -13 -46 -12 -41 2 3 8 10 12 16 11 7 -1 11 4 9 11 -3 15 45
35 70 29 10 -3 16 -1 12 4 -3 5 -14 9 -24 9 -13 0 -17 5 -14 15 4 8 9 13 14
10 4 -2 16 2 26 11 18 15 18 15 -1 6 -11 -5 -26 -7 -32 -5 -7 3 -13 -2 -13
-10 0 -9 -13 -22 -30 -31 -17 -8 -30 -10 -30 -4 0 5 9 12 20 15 11 3 20 11 20
18 0 6 9 20 19 29 15 13 20 14 24 4 3 -7 4 2 2 21 -2 19 -9 39 -15 45 -8 8 -9
6 -5 -7 6 -13 0 -18 -24 -23 -27 -6 -30 -9 -19 -23 8 -9 3 -8 -11 4 l-24 20 7
-22 c6 -19 4 -23 -16 -23 -19 0 -20 2 -8 10 13 9 13 11 0 20 -8 5 -12 10 -7
11 4 1 12 3 17 4 6 1 15 3 20 4 6 0 10 6 10 11 0 7 -15 9 -37 6 -21 -3 -30 -3
-20 0 9 3 14 10 10 16 -4 8 0 9 13 5 18 -7 18 -6 -1 9 -18 15 -18 16 -2 10 21
-7 61 16 49 29 -4 5 -1 5 6 1 15 -9 52 2 52 15 0 5 -6 8 -12 6 -7 -1 -12 4
-10 11 1 8 -2 11 -7 7 -6 -3 -8 -12 -4 -20 4 -11 1 -13 -11 -9 -9 3 -13 11 -9
18 4 6 0 5 -10 -2 -14 -12 -16 -11 -14 7 0 11 5 18 9 15 4 -3 23 2 42 10 19 8
36 12 39 10 2 -2 4 3 4 11 0 9 -9 15 -21 15 -17 0 -18 -2 -6 -10 13 -8 13 -10
-2 -10 -9 0 -25 -3 -35 -6 -16 -6 -16 -5 2 10 19 16 18 16 -17 2 -21 -8 -38
-13 -38 -11 0 3 -12 0 -27 -5 -27 -10 -27 -9 -8 5 11 9 19 22 17 29 -2 13 65
52 83 47 6 -1 4 3 -3 11 -10 10 -14 10 -21 0 -9 -15 -71 -34 -71 -22 0 5 15
12 33 16 28 6 29 8 12 15 -18 7 -18 8 5 8 45 1 60 4 60 12 0 5 -15 6 -32 2
-33 -6 -33 -6 -13 14 11 11 29 24 40 31 18 10 17 11 -9 8 -16 -2 -35 -11 -43
-21 -7 -11 -20 -20 -28 -21 -13 -2 -13 0 -1 18 8 11 12 26 10 33 -3 7 2 15 10
18 9 4 16 11 16 17 0 6 -4 8 -10 5 -6 -3 -7 1 -4 10 6 14 8 14 19 -2 8 -10 17
-15 21 -10 4 4 2 7 -4 7 -20 0 -14 18 8 25 11 3 20 13 20 20 0 9 -6 12 -15 9
-8 -4 -13 -9 -10 -13 2 -4 -6 -7 -18 -6 -12 1 -38 -5 -57 -13 -31 -13 -33 -13
-21 2 7 9 17 14 21 11 4 -2 16 4 26 14 11 9 28 23 39 30 19 11 18 11 -5 5 -13
-4 -30 -13 -38 -20 -18 -19 -23 -18 -15 4 6 14 4 15 -8 5 -13 -10 -16 -10 -16
2 0 7 3 13 6 13 3 -1 17 3 31 9 14 6 34 13 45 16 11 4 7 5 -10 3 -26 -4 -27
-3 -12 9 23 17 21 24 -5 18 l-23 -6 24 22 c22 19 42 26 64 22 5 -1 6 3 2 9 -3
6 -12 8 -18 4 -7 -3 -1 4 12 15 28 25 22 38 -8 21 -12 -6 -35 -13 -52 -15 -25
-3 -28 -1 -18 11 6 8 19 14 28 14 9 0 24 7 34 14 16 12 16 14 1 20 -9 3 -22 2
-29 -4 -6 -5 -15 -7 -18 -3 -4 3 -7 2 -7 -4 0 -5 -7 -10 -15 -10 -15 0 -4 13
67 75 23 21 39 28 73 32 6 0 -1 7 -15 15 -14 8 -21 14 -17 15 5 0 5 5 2 10 -5
8 -11 7 -21 -1 -8 -6 -14 -9 -14 -5 0 3 -12 1 -26 -5 -43 -16 -12 14 36 36 22
10 40 21 40 26 0 4 -28 -6 -61 -22 -34 -17 -64 -28 -67 -24 -3 3 0 5 7 5 7 0
10 4 6 9 -3 5 7 19 21 30 15 12 21 21 13 21 -8 0 -5 5 7 14 10 8 16 18 12 22
-5 4 -17 -1 -28 -11 -11 -10 -23 -15 -27 -12 -3 4 -1 7 6 7 7 0 9 5 5 12 -4 6
-3 8 4 4 6 -3 14 -1 17 5 4 5 13 8 19 6 7 -3 18 4 24 14 7 10 19 19 27 19 8 0
15 5 15 11 0 5 4 8 8 5 4 -2 19 5 32 15 l25 20 -25 -12 c-14 -8 -27 -14 -30
-14 -3 -1 -27 -12 -55 -24 -61 -28 -102 -34 -102 -17 0 7 7 13 16 13 26 1 61
15 61 25 0 5 -8 4 -19 -2 -24 -12 -31 -13 -31 -1 0 5 11 12 25 15 14 4 24 10
21 14 -3 5 13 7 34 6 22 -1 37 2 34 7 -2 4 -11 6 -19 2 -8 -3 -15 0 -15 6 0 6
14 14 30 18 17 3 33 10 36 15 10 16 -58 -2 -79 -20 -16 -15 -17 -14 -11 1 5
13 2 16 -10 11 -12 -5 -15 -2 -10 11 4 11 14 15 26 11 11 -2 17 -2 14 1 -3 3
2 12 12 20 15 11 13 12 -13 1 -16 -6 -36 -16 -42 -21 -9 -6 -13 -6 -13 2 0 15
65 73 103 91 17 8 32 22 35 30 2 10 1 11 -5 4 -4 -6 -16 -10 -25 -9 -10 2 -16
-1 -15 -6 3 -13 -100 -72 -107 -61 -3 5 18 21 47 36 28 14 47 26 41 26 -5 0
-29 -9 -52 -20 -51 -25 -61 -25 -32 -2 18 14 19 19 7 19 -9 0 -14 -4 -11 -9 3
-4 -2 -5 -10 -2 -24 9 17 61 55 69 19 4 34 16 39 31 6 14 20 29 32 34 13 5 18
9 11 9 -16 1 -66 -21 -74 -32 -3 -5 -9 -8 -13 -8 -3 1 -21 -6 -39 -14 l-32
-16 27 24 c15 14 25 27 22 30 -2 2 3 10 12 17 12 11 17 11 23 1 6 -9 11 -8 21
3 7 9 17 13 23 9 6 -3 7 -1 3 6 -6 9 -11 9 -22 0 -8 -6 -18 -9 -21 -5 -4 4 -1
12 7 17 12 9 11 9 -5 4 -11 -3 -24 -7 -30 -8 -5 -1 -14 -6 -18 -12 -5 -5 -5 1
-2 15 6 24 6 24 -19 -5 -14 -16 -26 -28 -27 -25 -5 15 -4 58 1 55 3 -2 12 1
20 6 12 8 11 9 -4 7 -29 -5 -30 17 0 30 29 14 27 39 -2 34 -15 -2 -16 -1 -5 6
7 6 10 15 7 21 -4 6 -4 11 1 10 12 -4 63 23 63 33 0 12 -8 10 -35 -8 -23 -15
-25 -15 -25 -1 0 10 15 21 40 28 33 10 40 17 41 38 2 24 2 25 6 3 3 -13 -1
-30 -8 -38 -10 -12 -9 -13 6 -7 14 5 17 3 12 -10 -3 -9 -2 -19 4 -22 5 -4 7
-12 3 -18 -3 -7 2 -3 10 7 16 19 16 19 16 -3 0 -12 4 -19 10 -16 5 3 8 26 5
50 -5 57 2 57 16 0 6 -25 15 -42 20 -40 4 3 6 11 4 18 -23 59 2 150 25 96 10
-23 10 -23 7 4 -3 17 3 36 14 50 18 21 18 21 20 2 10 -140 33 -204 42 -117 3
32 5 34 12 15 4 -13 11 -20 16 -17 5 3 7 9 4 14 -12 20 -12 69 1 74 8 3 14 15
14 26 0 12 4 19 8 16 4 -2 5 -32 2 -64 -6 -61 -4 -82 8 -82 4 0 6 21 4 47 -2
30 2 59 12 78 9 17 16 24 17 18 3 -24 4 -29 31 -93 14 -36 29 -73 32 -82 3
-10 9 -18 15 -18 5 0 3 17 -4 38 -23 68 -26 180 -5 167 5 -3 11 -19 15 -35z
m2973 20 c7 -12 16 -18 21 -15 5 2 14 -2 21 -9 9 -12 7 -17 -9 -26 -17 -8 -19
-8 -15 4 10 25 -13 26 -26 1 -7 -14 -20 -25 -29 -25 -14 1 -14 2 2 14 9 7 17
18 17 25 0 6 5 11 12 11 6 0 9 3 5 6 -8 8 -48 -6 -43 -15 3 -4 -4 -7 -15 -7
-19 0 -19 1 -3 13 10 7 21 13 26 13 4 0 7 3 7 8 -5 28 12 29 29 2z m-2903 0
c3 -5 1 -10 -4 -10 -6 0 -11 5 -11 10 0 6 2 10 4 10 3 0 8 -4 11 -10z m288
-25 c-3 -9 -8 -14 -10 -11 -3 3 -2 9 2 15 9 16 15 13 8 -4z m-203 -29 c0 -11
-9 -43 -19 -71 l-19 -50 -26 58 c-14 32 -26 64 -26 72 0 24 19 17 26 -10 3
-14 10 -22 15 -19 5 3 9 0 9 -5 0 -6 5 -11 11 -11 7 0 9 12 5 35 -6 29 -4 34
9 29 8 -3 15 -16 15 -28z m55 14 c3 -5 1 -10 -4 -10 -6 0 -11 5 -11 10 0 6 2
10 4 10 3 0 8 -4 11 -10z m251 -77 c-6 -54 -12 -62 -21 -33 -4 12 -4 24 -2 27
3 3 1 16 -4 30 -7 18 -6 30 3 40 18 23 31 -10 24 -64z m-881 28 c-3 -12 -10
-21 -15 -21 -4 0 -3 11 3 24 14 29 22 27 12 -3z m3335 -65 c0 -3 -4 -8 -10
-11 -5 -3 -10 -1 -10 4 0 6 5 11 10 11 6 0 10 -2 10 -4z m-2174 -51 c1 -8 -1
-17 -5 -19 -4 -3 -8 7 -9 21 -2 27 10 25 14 -2z m2317 2 c-3 -5 -14 -7 -24 -4
-11 3 -19 2 -19 -3 0 -4 -10 -10 -22 -13 l-23 -6 22 17 c23 17 76 24 66 9z
m-5568 -87 c-9 -16 -18 -30 -21 -30 -2 0 2 14 11 30 9 17 18 30 21 30 2 0 -2
-13 -11 -30z m64 -32 c-5 -10 -11 -18 -12 -18 -2 0 -3 8 -3 18 0 10 6 19 13
19 8 0 9 -6 2 -19z m5496 2 c3 -5 1 -10 -4 -10 -6 0 -11 5 -11 10 0 6 2 10 4
10 3 0 8 -4 11 -10z m-5614 -23 c-10 -9 -11 -8 -5 6 3 10 9 15 12 12 3 -3 0
-11 -7 -18z m5571 -9 c-7 -7 -12 -8 -12 -2 0 14 12 26 19 19 2 -3 -1 -11 -7
-17z m-3392 -38 c0 -5 -5 -10 -11 -10 -5 0 -7 5 -4 10 3 6 8 10 11 10 2 0 4
-4 4 -10z m3495 -17 c-11 -7 -22 -13 -27 -13 -4 0 -5 -8 -2 -17 5 -14 4 -15
-4 -4 -6 8 -17 11 -28 7 -23 -9 -17 -3 26 27 36 25 68 25 35 0z m-2080 -95
c-6 -31 -22 -68 -30 -68 -3 0 -1 10 4 23 10 27 11 30 11 63 0 14 4 23 10 19 6
-3 8 -20 5 -37z m65 -30 c0 -18 -2 -20 -9 -8 -6 8 -7 18 -5 22 9 14 14 9 14
-14z m-3613 -20 c-3 -8 -6 -5 -6 6 -1 11 2 17 5 13 3 -3 4 -12 1 -19z m3603
-38 c-12 -16 -24 -30 -26 -30 -3 0 4 14 16 30 12 17 24 30 26 30 3 0 -4 -13
-16 -30z m2037 -27 c-9 -2 -15 -8 -12 -13 3 -5 1 -11 -4 -14 -7 -5 -8 11 -2
32 1 1 9 1 19 1 16 -1 16 -2 -1 -6z m-1887 -27 c0 -3 -4 -8 -10 -11 -5 -3 -10
-1 -10 4 0 6 5 11 10 11 6 0 10 -2 10 -4z m-3793 -33 c-9 -9 -19 -14 -22 -11
-3 3 2 13 11 22 9 9 19 14 22 11 3 -3 -2 -13 -11 -22z m5679 6 c-49 -24 -54
-24 -26 -1 12 10 32 19 44 19 14 1 8 -5 -18 -18z m-2 -33 c-10 -8 -21 -12 -23
-10 -3 2 4 11 15 18 10 8 21 12 23 10 3 -2 -4 -11 -15 -18z m-5579 5 c3 -5 1
-12 -5 -16 -5 -3 -10 1 -10 9 0 18 6 21 15 7z m-142 -28 c-2 -10 -16 -31 -30
-48 -27 -33 -27 -29 2 28 19 38 37 50 28 20z m3807 -48 c-7 -9 -15 -13 -18
-10 -3 2 1 11 8 20 7 9 15 13 18 10 3 -2 -1 -11 -8 -20z m-3720 -5 c-6 -11
-15 -18 -20 -15 -5 3 -12 -7 -15 -22 -8 -36 -36 -93 -46 -93 -10 0 3 38 33 98
15 30 24 39 30 30 6 -10 8 -8 8 5 0 9 5 17 10 17 7 0 7 -7 0 -20z m2050 -4 c0
-2 -8 -10 -17 -17 -16 -13 -17 -12 -4 4 13 16 21 21 21 13z m-2199 -49 c-10
-9 -11 -8 -5 6 3 10 9 15 12 12 3 -3 0 -11 -7 -18z m139 13 c0 -5 -5 -10 -11
-10 -5 0 -7 5 -4 10 3 6 8 10 11 10 2 0 4 -4 4 -10z m-4 -61 c-4 -34 -26 -65
-26 -37 0 20 17 68 25 68 2 0 3 -14 1 -31z m45 4 c-5 -10 -17 -27 -26 -38 -16
-19 -16 -19 -4 5 13 27 29 50 36 50 2 0 -1 -8 -6 -17z m2114 -3 c-3 -6 -12
-10 -20 -10 -8 0 -18 -6 -22 -14 -9 -15 -50 -39 -73 -42 -8 -2 -4 6 10 16 14
11 30 20 37 20 6 0 15 5 19 12 5 8 1 9 -12 5 -17 -6 -17 -6 -3 6 20 15 73 21
64 7z m3545 -32 c-14 -13 -29 -22 -34 -20 -5 2 -13 -3 -17 -10 -7 -10 -9 -9
-9 4 0 18 43 47 69 48 10 0 6 -8 -9 -22z m-5633 -10 c-3 -8 -6 -5 -6 6 -1 11
2 17 5 13 3 -3 4 -12 1 -19z m5643 -22 c0 -3 -4 -8 -10 -11 -5 -3 -10 -1 -10
4 0 6 5 11 10 11 6 0 10 -2 10 -4z m-3590 -40 c0 -3 -4 -8 -10 -11 -5 -3 -10
-1 -10 4 0 6 5 11 10 11 6 0 10 -2 10 -4z m1716 -64 c-11 -10 -14 3 -7 38 l6
35 3 -33 c2 -19 1 -36 -2 -40z m1874 28 c-24 -15 -36 -11 -14 4 10 8 21 12 24
10 2 -3 -2 -9 -10 -14z m-3649 -38 c-7 -2 -18 1 -23 6 -8 8 -4 9 13 5 13 -4
18 -8 10 -11z m1768 -124 c-12 -22 -12 -22 -19 -3 -5 12 -1 32 9 50 l16 30 3
-27 c2 -15 -2 -37 -9 -50z m1924 46 c-6 -17 -20 -18 -26 -1 -3 6 -6 3 -6 -8
-1 -11 -6 -27 -11 -35 -8 -12 -10 -10 -7 10 4 34 12 45 36 47 13 1 18 -3 14
-13z m-63 -24 c0 -5 -4 -10 -10 -10 -5 0 -10 5 -10 10 0 6 5 10 10 10 6 0 10
-4 10 -10z m-5606 -47 c-2 -40 -3 -43 -13 -43 -5 0 -7 10 -4 23 12 54 20 63
17 20z m-79 -111 c-15 -16 -16 -15 -4 12 7 15 15 23 17 16 3 -7 -3 -19 -13
-28z m2037 11 c-6 -2 -9 -10 -6 -15 4 -7 2 -8 -5 -4 -13 9 -5 26 12 25 9 0 8
-2 -1 -6z m1808 -39 c-18 -21 -24 -10 -8 15 7 12 14 17 16 11 2 -6 -2 -17 -8
-26z m-3796 0 c3 -8 2 -12 -4 -9 -6 3 -10 10 -10 16 0 14 7 11 14 -7z m-52
-70 c-8 -14 -10 -13 -14 8 -2 14 0 36 6 49 10 24 10 23 14 -8 2 -18 -1 -40 -6
-49z m5735 54 c-3 -8 -6 -5 -6 6 -1 11 2 17 5 13 3 -3 4 -12 1 -19z m-1861
-14 c-4 -9 -9 -15 -11 -12 -3 3 -3 13 1 22 4 9 9 15 11 12 3 -3 3 -13 -1 -22z
m-3836 -22 c-9 -33 -39 -91 -40 -78 0 4 8 30 17 57 19 52 37 68 23 21z m5722
-9 c-6 -3 -10 -9 -7 -13 3 -5 0 -12 -6 -16 -8 -4 -9 -3 -5 4 4 7 1 12 -6 12
-8 0 -6 5 5 11 9 6 14 16 11 22 -4 7 -1 6 7 -2 11 -10 11 -15 1 -18z m-1930
-40 c-16 -27 -36 -66 -45 -88 l-17 -40 6 45 c5 39 24 81 24 55 0 -6 9 9 20 33
10 23 24 42 29 42 6 0 -2 -21 -17 -47z m1958 32 c0 -8 -4 -15 -10 -15 -5 0 -7
7 -4 15 4 8 8 15 10 15 2 0 4 -7 4 -15z m-29 -48 c-10 -9 -11 -8 -5 6 3 10 9
15 12 12 3 -3 0 -11 -7 -18z m-5700 -28 l-10 -24 0 26 c-1 14 2 29 6 33 12 12
14 -9 4 -35z m2004 -18 c-3 -6 -11 -11 -17 -11 -6 0 -6 6 2 15 14 17 26 13 15
-4z m-2027 -31 c9 -24 7 -33 -8 -52 -10 -13 -35 -52 -55 -86 -20 -34 -40 -62
-45 -62 -11 0 16 92 42 144 14 28 23 35 31 27 20 -20 26 -12 16 21 -11 40 -11
38 0 38 5 0 14 -13 19 -30z m2047 -10 c-3 -5 -14 -10 -23 -9 -14 0 -13 2 3 9
27 11 27 11 20 0z m3675 -20 c-6 -11 -8 -25 -5 -30 3 -5 0 -12 -6 -16 -7 -4
-9 -3 -5 4 3 5 0 13 -6 16 -10 5 -10 7 0 12 6 3 12 12 12 20 0 8 5 14 10 14 7
0 7 -7 0 -20z m75 -17 c-11 -7 -22 -13 -27 -13 -4 0 -8 -7 -8 -15 0 -8 -9 -19
-20 -25 -25 -13 -26 -2 -2 17 10 8 11 11 2 7 -12 -7 -13 -5 -3 8 7 8 10 18 6
22 -4 4 1 4 10 0 10 -3 17 -3 16 2 -3 18 2 22 22 17 21 -6 21 -7 4 -20z
m-3690 -63 c-10 -11 -21 -17 -24 -14 -3 3 3 12 13 20 28 20 32 17 11 -6z
m3605 -4 c0 -2 -8 -10 -17 -17 -16 -13 -17 -12 -4 4 13 16 21 21 21 13z
m-5757 -51 c-3 -9 -8 -14 -10 -11 -3 3 -2 9 2 15 9 16 15 13 8 -4z m2097 2
c-14 -8 -27 -12 -30 -10 -7 6 23 23 40 23 8 0 4 -6 -10 -13z m3633 -22 c-3 -9
-8 -14 -10 -11 -3 3 -2 9 2 15 9 16 15 13 8 -4z m14 -117 c-3 -8 -6 -5 -6 6
-1 11 2 17 5 13 3 -3 4 -12 1 -19z m-3662 2 c3 -5 1 -10 -4 -10 -6 0 -11 5
-11 10 0 6 2 10 4 10 3 0 8 -4 11 -10z m3640 -39 c2 -12 0 -19 -6 -16 -5 4 -9
16 -9 27 0 26 9 19 15 -11z m-25 -15 c0 -3 -4 -8 -10 -11 -5 -3 -10 -1 -10 4
0 6 5 11 10 11 6 0 10 -2 10 -4z m30 -26 c0 -5 -5 -10 -11 -10 -5 0 -7 5 -4
10 3 6 8 10 11 10 2 0 4 -4 4 -10z m5 -30 c3 -5 -1 -10 -10 -10 -9 0 -13 5
-10 10 3 6 8 10 10 10 2 0 7 -4 10 -10z m-5705 -48 c0 -5 -6 -17 -14 -27 -13
-18 -14 -18 -9 8 5 24 23 39 23 19z m21 -35 c-5 -14 -15 -28 -21 -32 -5 -3 -3
10 7 29 19 40 29 42 14 3z m5659 18 c0 -8 -2 -15 -4 -15 -2 0 -6 7 -10 15 -3
8 -1 15 4 15 6 0 10 -7 10 -15z m-1837 -10 c-3 -9 -8 -14 -10 -11 -3 3 -2 9 2
15 9 16 15 13 8 -4z m1807 -25 c-8 -5 -17 -7 -19 -4 -3 3 1 9 9 14 8 5 17 7
19 4 3 -3 -1 -9 -9 -14z m11 -43 c-10 -9 -11 -8 -5 6 3 10 9 15 12 12 3 -3 0
-11 -7 -18z m90 -11 c-24 -24 -32 -40 -27 -53 4 -9 4 -14 0 -10 -4 3 -20 -1
-35 -10 -24 -14 -31 -15 -41 -4 -10 11 -10 12 0 7 7 -4 12 -2 12 6 0 23 48 71
62 62 7 -4 10 -3 5 1 -6 7 30 30 52 34 3 1 -10 -14 -28 -33z m-5778 9 c-3 -9
-8 -14 -10 -11 -3 3 -2 9 2 15 9 16 15 13 8 -4z m-29 -40 c-4 -8 -8 -15 -10
-15 -2 0 -4 7 -4 15 0 8 4 15 10 15 5 0 7 -7 4 -15z m2112 -64 c-6 -9 -46 -22
-46 -15 0 3 10 9 23 14 29 11 29 11 23 1z m3617 -26 c-3 -9 -8 -14 -10 -11 -3
3 -2 9 2 15 9 16 15 13 8 -4z m-36 -77 c-3 -8 -6 -5 -6 6 -1 11 2 17 5 13 3
-3 4 -12 1 -19z m-5622 -37 c-3 -12 -10 -21 -15 -21 -5 0 -4 11 2 25 13 29 23
26 13 -4z m2088 -3 c-5 -7 -8 -23 -7 -35 1 -14 -3 -20 -13 -16 -10 4 -11 9 -2
19 16 19 -1 18 -30 -3 -14 -9 -21 -11 -17 -4 7 11 65 51 75 51 2 0 -1 -6 -6
-12z m1630 -13 c-3 -9 -8 -14 -10 -11 -3 3 -2 9 2 15 9 16 15 13 8 -4z m11
-37 c-7 -25 -54 -97 -54 -85 0 12 50 107 56 107 3 0 2 -10 -2 -22z m1911 12
c-3 -5 -12 -10 -18 -10 -7 0 -6 4 3 10 19 12 23 12 15 0z m-3560 -100 c3 -5 1
-10 -4 -10 -6 0 -11 5 -11 10 0 6 2 10 4 10 3 0 8 -4 11 -10z m-2075 -10 c0
-5 -2 -10 -4 -10 -3 0 -8 5 -11 10 -3 6 -1 10 4 10 6 0 11 -4 11 -10z m-27
-45 c-3 -9 -8 -14 -10 -11 -3 3 -2 9 2 15 9 16 15 13 8 -4z m2067 -45 c22 14
30 12 24 -5 -4 -8 -10 -12 -15 -10 -5 3 -20 -2 -34 -11 l-26 -17 12 27 c7 15
15 22 18 17 4 -6 12 -6 21 -1z m1643 -15 c-3 -9 -8 -14 -10 -11 -3 3 -2 9 2
15 9 16 15 13 8 -4z m1917 -15 c0 -11 -4 -20 -10 -20 -5 0 -10 9 -10 20 0 11
5 20 10 20 6 0 10 -9 10 -20z m-1910 -44 c-5 -15 -17 -29 -25 -32 -10 -4 -14
-14 -10 -28 5 -20 5 -20 -6 1 -10 20 -8 26 15 49 14 15 26 31 26 37 0 6 2 8 5
5 3 -3 1 -17 -5 -32z m-55 -6 c-9 -16 -13 -30 -10 -30 7 0 -27 -84 -38 -91 -5
-3 -8 -9 -8 -13 1 -12 -33 -76 -41 -76 -13 0 -10 13 18 92 14 40 32 78 40 84
8 6 14 15 14 19 0 9 30 45 37 45 2 0 -3 -13 -12 -30z m1935 16 c0 -2 -7 -6
-15 -10 -8 -3 -15 -1 -15 4 0 6 7 10 15 10 8 0 15 -2 15 -4z m43 -46 c3 -11 1
-20 -4 -20 -5 0 -9 9 -9 20 0 11 2 20 4 20 2 0 6 -9 9 -20z m-49 -24 c-10 -8
-21 -12 -23 -10 -3 2 4 11 15 18 10 8 21 12 23 10 3 -2 -4 -11 -15 -18z m25
-9 c-2 -1 -15 -11 -29 -22 l-25 -20 19 23 c11 12 24 22 29 22 6 0 8 -1 6 -3z
m-3595 -25 c2 -4 -10 -8 -27 -9 -30 -1 -30 -1 -7 7 14 4 26 8 27 9 1 1 4 -3 7
-7z m3601 -12 c-3 -5 -14 -10 -23 -10 -15 0 -15 2 -2 10 20 13 33 13 25 0z
m-2004 -83 c-10 -9 -11 -8 -5 6 3 10 9 15 12 12 3 -3 0 -11 -7 -18z m-3661
-97 c-6 -12 -14 -20 -17 -17 -2 3 1 14 8 26 17 26 24 19 9 -9z m2104 11 c3 -4
-4 -17 -17 -27 -22 -19 -22 -19 -4 2 9 11 14 24 10 27 -3 4 -4 7 0 7 3 0 8 -4
11 -9z m1466 -6 c0 -8 -39 -54 -87 -102 -87 -88 -95 -92 -40 -18 29 38 118
135 124 135 2 0 3 -7 3 -15z m1992 -12 c-6 -3 -10 -9 -6 -14 3 -5 1 -9 -5 -9
-6 0 -8 -7 -5 -15 4 -8 2 -15 -4 -15 -15 0 -7 51 9 61 7 4 16 5 19 2 3 -3 -1
-8 -8 -10z m-1952 -18 c-7 -9 -15 -13 -17 -11 -7 7 7 26 19 26 6 0 6 -6 -2
-15z m-3669 -63 c-19 -38 -41 -62 -41 -46 0 13 52 96 57 91 2 -3 -5 -23 -16
-45z m2149 17 c-7 -11 -14 -18 -17 -15 -3 3 0 12 7 21 18 21 23 19 10 -6z
m-2118 -31 c-7 -7 -12 -8 -12 -2 0 14 12 26 19 19 2 -3 -1 -11 -7 -17z m3518
-21 c0 -2 -10 -12 -22 -23 l-23 -19 19 23 c18 21 26 27 26 19z m33 -32 c-3 -9
-8 -14 -10 -11 -3 3 -2 9 2 15 9 16 15 13 8 -4z m-93 -55 c-35 -45 -47 -51
-29 -17 16 30 40 57 51 57 5 0 -5 -18 -22 -40z m-73 -41 c-9 -6 -15 -14 -13
-18 3 -4 -6 -20 -20 -37 l-25 -29 16 34 c12 25 13 31 3 26 -7 -4 0 5 16 20 15
14 31 23 35 20 3 -4 -2 -11 -12 -16z m-1256 -8 c-6 -10 -23 -26 -38 -36 l-28
-18 20 24 c20 25 46 49 52 49 2 0 -1 -8 -6 -19z m1200 1 c-5 -10 -18 -25 -27
-33 -16 -13 -16 -12 -4 11 11 22 28 39 38 40 1 0 -2 -8 -7 -18z m-491 -13 c0
-5 -4 -9 -10 -9 -5 0 -10 7 -10 16 0 8 5 12 10 9 6 -3 10 -10 10 -16z m-2765
-21 c-4 -13 -9 -35 -12 -51 -3 -15 -9 -29 -13 -32 -4 -2 -4 15 1 38 4 23 8 48
9 55 0 6 5 12 11 12 7 0 9 -8 4 -22z m2312 -27 c2 -3 10 4 18 15 13 18 14 18
15 1 0 -22 -27 -34 -43 -18 -8 8 -15 6 -29 -6 -10 -9 -18 -12 -18 -8 0 5 -7 0
-15 -11 -8 -10 -15 -15 -15 -11 0 5 14 22 31 38 20 18 24 27 13 22 -17 -6 -17
-5 -5 10 13 16 15 16 29 -5 8 -13 17 -25 19 -27z m883 38 c0 8 3 12 6 8 3 -3
1 -14 -5 -24 -6 -10 -11 -12 -11 -5 0 23 -29 12 -47 -18 -19 -33 -33 -39 -28
-12 2 9 4 21 4 25 1 5 6 5 11 2 6 -3 10 -2 10 3 0 15 44 31 52 18 5 -7 8 -6 8
3z m2227 -11 c-3 -8 -6 -5 -6 6 -1 11 2 17 5 13 3 -3 4 -12 1 -19z m-2157 5
c0 -5 -10 -19 -21 -33 l-20 -25 16 33 c15 30 25 41 25 25z m-1116 -38 c-4 -8
-8 -15 -10 -15 -2 0 -4 7 -4 15 0 8 4 15 10 15 5 0 7 -7 4 -15z m67 -9 c-6 -7
-20 -16 -31 -19 -16 -4 -17 -2 -7 14 7 11 18 17 24 14 7 -2 13 1 13 7 0 6 3 8
6 5 4 -4 2 -13 -5 -21z m409 10 c0 -8 -4 -17 -9 -21 -12 -7 -24 12 -16 25 9
15 25 12 25 -4z m210 6 c0 -11 -41 -34 -48 -28 -3 4 3 13 14 21 21 16 34 19
34 7z m2597 -14 c-3 -8 -6 -5 -6 6 -1 11 2 17 5 13 3 -3 4 -12 1 -19z m-2977
7 c0 -2 -10 -9 -22 -15 -22 -11 -22 -10 -4 4 21 17 26 19 26 11z m-180 -35
c-12 -16 -24 -30 -26 -30 -3 0 4 14 16 30 12 17 24 30 26 30 3 0 -4 -13 -16
-30z m660 10 c0 -5 -14 -17 -31 -26 -17 -8 -28 -11 -25 -5 4 6 1 11 -6 11 -8
0 -6 5 5 11 9 5 22 7 27 4 6 -3 10 -1 10 4 0 6 5 11 10 11 6 0 10 -4 10 -10z
m-160 -4 c0 -2 -7 -7 -16 -10 -8 -3 -12 -2 -9 4 6 10 25 14 25 6z m2650 -47
c0 -5 -4 -9 -10 -9 -5 0 -10 8 -10 18 0 10 -3 22 -7 28 -5 5 0 1 10 -9 9 -11
17 -23 17 -28z m-3240 26 c-7 -9 -15 -13 -19 -10 -3 3 1 10 9 15 21 14 24 12
10 -5z m485 5 c-3 -5 -12 -10 -18 -10 -7 0 -6 4 3 10 19 12 23 12 15 0z m-534
-43 c-10 -9 -11 -8 -5 6 3 10 9 15 12 12 3 -3 0 -11 -7 -18z m3245 -14 c-10
-10 -19 5 -10 18 6 11 8 11 12 0 2 -7 1 -15 -2 -18z m-5385 -34 l-10 -24 0 26
c-1 14 2 29 6 33 12 12 14 -9 4 -35z m5357 7 c-2 -1 -14 -10 -27 -21 -14 -11
-21 -14 -16 -6 4 8 3 16 -4 20 -7 4 2 8 19 8 16 0 29 -1 28 -1z m-5388 -41 c0
-2 -9 -9 -20 -15 -16 -9 -18 -8 -14 5 5 13 34 22 34 10z m-65 -53 c-15 -16
-16 -15 -4 12 7 15 15 23 17 16 3 -7 -3 -19 -13 -28z m125 -142 c0 -5 -5 -10
-11 -10 -5 0 -7 5 -4 10 3 6 8 10 11 10 2 0 4 -4 4 -10z m5017 -182 c-3 -8 -6
-5 -6 6 -1 11 2 17 5 13 3 -3 4 -12 1 -19z m58 -60 c2 -35 0 -46 -5 -33 -10
22 -13 101 -4 93 3 -3 7 -30 9 -60z m-5115 -24 c-18 -21 -24 -10 -9 18 8 14
14 18 17 10 2 -7 -2 -19 -8 -28z m5027 -6 c-3 -8 -6 -5 -6 6 -1 11 2 17 5 13
3 -3 4 -12 1 -19z m-4981 -58 c-6 -35 -56 -124 -64 -116 -10 11 41 146 56 146
11 0 13 -7 8 -30z m4910 -23 c2 -30 0 -37 -6 -22 -11 26 -12 65 -2 65 4 0 8
-19 8 -43z m-42 -52 c3 -8 1 -15 -3 -15 -5 0 -11 7 -15 15 -3 8 -1 15 3 15 5
0 11 -7 15 -15z m53 -9 c0 -6 3 -25 7 -41 9 -38 -7 -22 -22 21 -7 23 -7 31 2
31 7 0 13 -5 13 -11z m-110 -38 c-3 -7 -5 -2 -5 12 0 14 2 19 5 13 2 -7 2 -19
0 -25z m-71 -123 c1 -8 -2 -13 -7 -9 -5 3 -9 12 -9 21 0 19 13 9 16 -12z m17
-46 c3 -13 1 -19 -6 -16 -15 5 -22 37 -9 37 5 0 12 -9 15 -21z m-250 -94 c-3
-9 -8 -14 -10 -11 -3 3 -2 9 2 15 9 16 15 13 8 -4z m-4532 -28 c-10 -9 -11 -8
-5 6 3 10 9 15 12 12 3 -3 0 -11 -7 -18z m26 -89 c-3 -8 -6 -5 -6 6 -1 11 2
17 5 13 3 -3 4 -12 1 -19z m43 -13 c0 -8 -4 -15 -10 -15 -5 0 -7 7 -4 15 4 8
8 15 10 15 2 0 4 -7 4 -15z m3790 -45 c0 -5 -5 -10 -11 -10 -5 0 -7 5 -4 10 3
6 8 10 11 10 2 0 4 -4 4 -10z m-3830 -8 c0 -5 -7 -17 -16 -28 -8 -10 -14 -14
-11 -9 2 6 7 18 10 28 7 17 17 23 17 9z m21 -35 c-10 -9 -11 -8 -5 6 3 10 9
15 12 12 3 -3 0 -11 -7 -18z m3863 8 c3 -8 1 -15 -4 -15 -6 0 -10 7 -10 15 0
8 2 15 4 15 2 0 6 -7 10 -15z m82 -21 c-4 -14 -9 -24 -12 -21 -3 2 -2 17 2 31
3 15 9 25 11 22 3 -3 2 -17 -1 -32z m-4021 -41 l-16 -28 6 40 c8 49 19 67 23
38 2 -12 -4 -34 -13 -50z m3982 15 c-3 -7 -5 -2 -5 12 0 14 2 19 5 13 2 -7 2
-19 0 -25z m-257 -8 c0 -11 -4 -20 -8 -20 -4 0 -8 9 -8 20 0 11 4 20 8 20 4 0
8 -9 8 -20z m-3617 -30 c-3 -11 -12 -25 -21 -32 -14 -12 -14 -10 -3 10 7 13
10 30 7 37 -3 9 0 12 8 9 8 -3 12 -14 9 -24z m3369 -22 c-6 -6 -8 -1 -7 14 4
39 8 44 12 19 3 -13 0 -28 -5 -33z m22 -67 c-9 -28 -18 -50 -19 -49 -8 8 20
117 27 110 6 -6 2 -31 -8 -61z m-3216 28 c-3 -8 -7 -3 -11 10 -4 17 -3 21 5
13 5 -5 8 -16 6 -23z m2817 12 c3 -5 1 -12 -5 -16 -5 -3 -10 1 -10 9 0 18 6
21 15 7z m677 -27 c-3 -26 -7 -33 -13 -22 -9 15 -1 58 10 58 4 0 5 -16 3 -36z
m-2932 11 c0 -8 -4 -15 -10 -15 -5 0 -7 7 -4 15 4 8 8 15 10 15 2 0 4 -7 4
-15z m2370 -22 c0 -32 -5 -28 -14 10 -4 19 -3 26 4 22 5 -3 10 -18 10 -32z
m-2990 -5 c0 -23 -3 -29 -9 -19 -5 7 -7 21 -6 30 5 22 4 21 10 21 3 0 5 -15 5
-32z m2568 -68 c0 -23 -1 -22 -8 5 -4 17 -8 46 -8 65 l0 35 9 -40 c4 -22 8
-51 7 -65z m-1678 80 c0 -5 -5 -10 -11 -10 -5 0 -7 5 -4 10 3 6 8 10 11 10 2
0 4 -4 4 -10z m359 -22 c-5 -18 -9 -35 -10 -38 0 -3 -4 4 -8 14 -5 13 -2 26 8
38 21 24 21 23 10 -14z m1685 17 c3 -8 1 -15 -4 -15 -6 0 -10 7 -10 15 0 8 2
15 4 15 2 0 6 -7 10 -15z m283 -7 c-3 -8 -6 -5 -6 6 -1 11 2 17 5 13 3 -3 4
-12 1 -19z m-2370 -10 c-3 -8 -6 -5 -6 6 -1 11 2 17 5 13 3 -3 4 -12 1 -19z
m-447 -39 c0 -3 -6 -11 -13 -17 -10 -9 -13 -4 -13 24 0 32 1 34 13 18 7 -10
13 -21 13 -25z m893 26 c-3 -9 -8 -14 -10 -11 -3 3 -2 9 2 15 9 16 15 13 8 -4z
m70 -22 c4 -18 3 -33 -2 -33 -10 0 -21 57 -13 65 7 7 8 5 15 -32z m445 1 c-3
-14 -5 -12 -10 9 -3 19 -2 25 4 19 6 -6 8 -18 6 -28z m-1728 6 c0 -11 -2 -20
-4 -20 -2 0 -6 9 -9 20 -3 11 -1 20 4 20 5 0 9 -9 9 -20z m220 10 c0 -5 -2
-10 -4 -10 -3 0 -8 5 -11 10 -3 6 -1 10 4 10 6 0 11 -4 11 -10z m497 -27 c-3
-10 -5 -4 -5 12 0 17 2 24 5 18 2 -7 2 -21 0 -30z m353 27 c0 -5 -4 -10 -10
-10 -5 0 -10 5 -10 10 0 6 5 10 10 10 6 0 10 -4 10 -10z m884 -27 c-4 -72 -3
-70 -18 -44 -10 18 -11 32 -4 53 12 34 25 29 22 -9z m-634 5 c0 -13 -5 -30
-10 -38 -6 -10 -9 -4 -7 23 2 39 17 53 17 15z m549 -27 c-1 -9 -5 -27 -9 -41
-8 -25 -8 -25 -10 5 -1 17 -3 43 -4 58 -2 25 0 27 11 11 7 -10 13 -25 12 -33z
m299 18 c-3 -8 -7 -3 -11 10 -4 17 -3 21 5 13 5 -5 8 -16 6 -23z m-1713 12 c3
-5 1 -12 -5 -16 -5 -3 -10 1 -10 9 0 18 6 21 15 7z m2393 -21 c-3 -39 -15 -39
-14 0 1 16 4 30 9 30 4 0 6 -13 5 -30z m-1332 -2 c-3 -18 -25 -55 -26 -43 0
20 13 55 20 55 5 0 7 -6 6 -12z m-1240 -51 c-10 -17 -11 -16 -14 3 -2 12 0 29
3 38 6 15 8 15 15 -3 4 -11 2 -28 -4 -38z m774 20 c0 -5 -4 -5 -10 -2 -5 3
-10 14 -10 23 0 15 2 15 10 2 5 -8 10 -19 10 -23z m1367 18 c0 -8 -4 -15 -9
-15 -10 0 -11 14 -1 23 9 10 10 9 10 -8z m-697 -49 c0 -12 -5 -7 -19 24 -11
24 -11 24 3 6 9 -11 16 -24 16 -30z"/>
<path d="M2835 6719 c4 -5 -1 -20 -11 -32 -16 -19 -15 -19 8 2 26 23 29 41 7
41 -6 0 -7 -5 -4 -11z"/>
<path d="M3743 6715 c0 -8 4 -12 9 -9 5 3 6 10 3 15 -9 13 -12 11 -12 -6z"/>
<path d="M2835 5150 c-2 -3 2 -13 9 -22 12 -16 14 -16 23 5 9 19 8 23 -9 23
-11 0 -21 -3 -23 -6z"/>
<path d="M2922 5080 c-38 -23 -46 -25 -36 -7 4 7 3 9 -2 4 -5 -5 -9 -12 -9
-15 0 -4 -4 -14 -10 -22 -7 -12 -6 -13 6 -3 8 6 34 23 59 37 25 14 41 26 35
26 -5 0 -25 -9 -43 -20z"/>
<path d="M2988 5003 c7 -3 16 -2 19 1 4 3 -2 6 -13 5 -11 0 -14 -3 -6 -6z"/>
<path d="M2865 4990 c-3 -5 1 -10 10 -10 9 0 13 5 10 10 -3 6 -8 10 -10 10 -2
0 -7 -4 -10 -10z"/>
<path d="M2850 4895 c-11 -13 -10 -14 4 -9 9 3 16 10 16 15 0 13 -6 11 -20 -6z"/>
<path d="M3005 4880 c-3 -6 1 -7 9 -4 18 7 21 14 7 14 -6 0 -13 -4 -16 -10z"/>
<path d="M2931 4598 c-12 -4 -21 -4 -21 0 0 10 -20 -21 -20 -32 0 -5 8 -2 18
7 10 10 27 17 38 17 10 0 26 5 34 10 12 7 10 9 -7 7 -12 0 -31 -5 -42 -9z"/>
<path d="M2850 4520 c-9 -6 -10 -10 -3 -10 6 0 15 5 18 10 8 12 4 12 -15 0z"/>
<path d="M2973 4493 c-13 -2 -23 -9 -23 -14 0 -12 10 -11 40 6 25 15 23 16
-17 8z"/>
<path d="M2975 4341 c-11 -5 -23 -7 -27 -4 -5 2 -8 -1 -8 -7 0 -12 30 -6 60
11 19 11 2 10 -25 0z"/>
<path d="M2888 4233 c7 -3 16 -2 19 1 4 3 -2 6 -13 5 -11 0 -14 -3 -6 -6z"/>
<path d="M2860 4055 c-33 -19 -21 -19 21 0 19 8 27 14 19 14 -8 0 -26 -6 -40
-14z"/>
<path d="M2930 3979 c0 -5 5 -7 10 -4 6 3 10 8 10 11 0 2 -4 4 -10 4 -5 0 -10
-5 -10 -11z"/>
<path d="M2835 3900 l-20 -9 20 0 c11 0 27 4 35 9 13 9 13 10 0 9 -8 0 -24 -4
-35 -9z"/>
<path d="M2955 3820 c-19 -8 -19 -9 3 -9 12 -1 22 4 22 9 0 6 -1 10 -2 9 -2 0
-12 -4 -23 -9z"/>
<path d="M2948 3717 c4 -14 7 -16 13 -5 12 19 11 25 -5 25 -8 0 -11 -8 -8 -20z"/>
<path d="M2888 3573 c7 -3 16 -2 19 1 4 3 -2 6 -13 5 -11 0 -14 -3 -6 -6z"/>
<path d="M3000 3500 c-12 -7 -10 -9 7 -7 12 0 19 5 17 9 -6 10 -6 10 -24 -2z"/>
<path d="M2950 3488 c0 -4 7 -8 15 -8 8 0 15 4 15 8 0 5 -7 9 -15 9 -8 0 -15
-4 -15 -9z"/>
<path d="M2930 3450 c-9 -6 -10 -10 -3 -10 6 0 15 5 18 10 8 12 4 12 -15 0z"/>
<path d="M2891 3397 c-8 -10 -7 -14 4 -14 8 0 15 6 15 14 0 7 -2 13 -4 13 -2
0 -9 -6 -15 -13z"/>
<path d="M2946 3354 c-5 -14 -4 -15 9 -4 17 14 19 20 6 20 -5 0 -12 -7 -15
-16z"/>
<path d="M2873 3346 c-22 -10 -31 -26 -15 -26 10 1 46 29 41 33 -2 2 -14 -2
-26 -7z"/>
<path d="M2911 3284 c-19 -8 -32 -17 -28 -20 3 -3 22 4 44 15 44 23 34 27 -16
5z"/>
<path d="M2823 2868 c-2 -15 1 -16 18 -5 24 15 25 26 1 24 -10 0 -19 -9 -19
-19z"/>
<path d="M2907 2865 c3 -8 9 -12 14 -9 12 7 11 11 -5 17 -10 4 -13 1 -9 -8z"/>
<path d="M2917 2738 c-12 -10 -14 -17 -6 -28 9 -13 10 -13 6 0 -2 8 3 20 12
27 9 7 13 13 10 13 -3 0 -13 -6 -22 -12z"/>
<path d="M2945 2609 c-4 -6 -5 -12 -2 -15 2 -3 7 2 10 11 7 17 1 20 -8 4z"/>
<path d="M2800 2520 c-9 -6 -10 -10 -3 -10 6 0 15 5 18 10 8 12 4 12 -15 0z"/>
<path d="M2872 2464 c-12 -8 -20 -20 -17 -25 9 -13 38 5 41 25 3 20 4 20 -24
0z"/>
<path d="M2874 2286 c-10 -8 -16 -17 -13 -20 3 -3 14 3 24 14 21 23 17 26 -11
6z"/>
<path d="M3265 2270 c-3 -6 1 -7 9 -4 18 7 21 14 7 14 -6 0 -13 -4 -16 -10z"/>
<path d="M3880 2240 c-6 -11 -8 -20 -6 -20 3 0 10 9 16 20 6 11 8 20 6 20 -3
0 -10 -9 -16 -20z"/>
<path d="M2950 2190 c-8 -5 -12 -11 -10 -14 3 -2 14 2 24 10 22 15 10 19 -14
4z"/>
<path d="M3106 2188 c3 -5 10 -6 15 -3 13 9 11 12 -6 12 -8 0 -12 -4 -9 -9z"/>
<path d="M3906 2155 c-3 -8 -1 -15 4 -15 6 0 10 7 10 15 0 8 -2 15 -4 15 -2 0
-6 -7 -10 -15z"/>
<path d="M3454 2120 c0 -13 4 -16 10 -10 7 7 7 13 0 20 -6 6 -10 3 -10 -10z"/>
<path d="M3219 2113 c-13 -16 -12 -17 4 -4 9 7 17 15 17 17 0 8 -8 3 -21 -13z"/>
<path d="M2130 6911 c0 -7 -4 -9 -10 -6 -5 3 -10 1 -10 -4 0 -6 4 -11 9 -11
13 0 25 20 17 27 -3 4 -6 1 -6 -6z"/>
<path d="M2100 6873 c0 -6 -19 -20 -42 -32 -27 -14 -33 -20 -18 -17 14 3 30 6
37 6 14 0 37 39 29 48 -3 3 -6 1 -6 -5z"/>
<path d="M1940 6851 c0 -7 -5 -9 -12 -5 -7 5 -8 3 -3 -5 5 -9 10 -10 18 -2 6
6 8 14 4 18 -4 3 -7 1 -7 -6z"/>
<path d="M2165 6850 c-3 -6 1 -7 9 -4 18 7 21 14 7 14 -6 0 -13 -4 -16 -10z"/>
<path d="M916 6833 c-6 -14 -5 -15 5 -6 7 7 10 15 7 18 -3 3 -9 -2 -12 -12z"/>
<path d="M1435 6840 c3 -5 8 -10 11 -10 2 0 4 5 4 10 0 6 -5 10 -11 10 -5 0
-7 -4 -4 -10z"/>
<path d="M3926 6835 c-11 -8 -15 -15 -9 -15 6 0 16 7 23 15 16 19 11 19 -14 0z"/>
<path d="M1352 6823 c-15 -13 -15 -13 3 -5 11 6 24 10 28 10 16 0 17 9 2 9 -9
0 -23 -7 -33 -14z"/>
<path d="M2500 6830 c-9 -6 -10 -10 -3 -10 6 0 15 5 18 10 8 12 4 12 -15 0z"/>
<path d="M1066 6813 c-6 -14 -5 -15 5 -6 7 7 10 15 7 18 -3 3 -9 -2 -12 -12z"/>
<path d="M1233 6803 c-9 -13 -13 -26 -10 -29 3 -3 8 4 12 15 3 12 13 21 20 21
8 0 16 4 19 8 13 21 -27 6 -41 -15z"/>
<path d="M2055 6810 c-3 -6 1 -7 9 -4 18 7 21 14 7 14 -6 0 -13 -4 -16 -10z"/>
<path d="M1995 6780 c-16 -16 -27 -32 -24 -34 2 -2 19 11 37 30 19 19 30 34
25 34 -5 0 -22 -13 -38 -30z"/>
<path d="M2740 6800 c-9 -6 -10 -10 -3 -10 6 0 15 5 18 10 8 12 4 12 -15 0z"/>
<path d="M4316 6802 c-3 -5 1 -9 9 -9 8 0 12 4 9 9 -3 4 -7 8 -9 8 -2 0 -6 -4
-9 -8z"/>
<path d="M3350 6790 c-9 -6 -10 -10 -3 -10 6 0 15 5 18 10 8 12 4 12 -15 0z"/>
<path d="M2275 6770 c-10 -11 -16 -22 -14 -24 2 -2 12 7 22 20 22 29 17 32 -8
4z"/>
<path d="M3769 6773 c-13 -16 -12 -17 4 -4 9 7 17 15 17 17 0 8 -8 3 -21 -13z"/>
<path d="M3195 6750 c-16 -16 -25 -30 -19 -29 8 0 60 59 52 59 -3 0 -17 -13
-33 -30z"/>
<path d="M3434 6765 c-10 -8 -14 -15 -8 -15 6 0 17 7 24 15 16 19 9 19 -16 0z"/>
<path d="M4695 6769 c-4 -6 -5 -12 -2 -15 2 -3 7 2 10 11 7 17 1 20 -8 4z"/>
<path d="M2870 6759 c0 -5 5 -7 10 -4 6 3 10 8 10 11 0 2 -4 4 -10 4 -5 0 -10
-5 -10 -11z"/>
<path d="M1515 6750 c-3 -5 -1 -10 4 -10 6 0 11 5 11 10 0 6 -2 10 -4 10 -3 0
-8 -4 -11 -10z"/>
<path d="M4049 6739 c-8 -5 -10 -9 -5 -9 5 0 3 -7 -4 -15 -11 -13 -10 -14 4
-9 9 3 16 10 16 14 0 5 8 10 18 12 15 3 15 4 1 10 -9 3 -22 2 -30 -3z"/>
<path d="M3975 6730 c3 -5 8 -10 11 -10 2 0 4 5 4 10 0 6 -5 10 -11 10 -5 0
-7 -4 -4 -10z"/>
<path d="M5049 6723 c-13 -16 -12 -17 4 -4 9 7 17 15 17 17 0 8 -8 3 -21 -13z"/>
<path d="M4916 6668 c3 -5 10 -6 15 -3 13 9 11 12 -6 12 -8 0 -12 -4 -9 -9z"/>
<path d="M4943 6650 c-18 -11 -33 -24 -33 -29 0 -17 39 -19 52 -2 11 14 11 14
-3 4 -9 -7 -19 -10 -22 -7 -7 8 18 34 32 34 6 0 11 5 11 10 0 13 0 13 -37 -10z"/>
<path d="M5030 6579 c0 -5 5 -7 10 -4 6 3 10 8 10 11 0 2 -4 4 -10 4 -5 0 -10
-5 -10 -11z"/>
<path d="M5034 6536 c-10 -8 -17 -16 -14 -19 3 -2 14 4 24 14 23 22 18 25 -10
5z"/>
<path d="M5204 6478 l-19 -23 23 19 c21 18 27 26 19 26 -2 0 -12 -10 -23 -22z"/>
<path d="M5261 6466 c-13 -7 -19 -16 -14 -19 11 -7 51 18 43 26 -3 3 -16 0
-29 -7z"/>
<path d="M5605 6189 c-9 -13 0 -22 25 -26 19 -3 19 -2 3 17 -20 23 -20 23 -28
9z"/>
<path d="M5650 6191 c0 -6 4 -13 10 -16 6 -3 7 1 4 9 -7 18 -14 21 -14 7z"/>
<path d="M5705 6180 c-3 -6 1 -7 9 -4 18 7 21 14 7 14 -6 0 -13 -4 -16 -10z"/>
<path d="M5755 6140 c-3 -6 -12 -10 -18 -9 -28 3 -48 -2 -42 -11 4 -6 12 -7
18 -3 6 4 20 8 29 8 21 2 34 12 26 21 -3 3 -9 0 -13 -6z"/>
<path d="M5778 6103 c6 -2 18 -2 25 0 6 3 1 5 -13 5 -14 0 -19 -2 -12 -5z"/>
<path d="M5720 6070 c-9 -6 -10 -10 -3 -10 6 0 15 5 18 10 8 12 4 12 -15 0z"/>
<path d="M5873 5972 c-17 -13 -16 -13 7 -7 14 4 32 11 40 16 11 6 10 8 -7 6
-12 0 -30 -7 -40 -15z"/>
<path d="M5795 5950 c4 -6 11 -8 16 -5 14 9 11 15 -7 15 -8 0 -12 -5 -9 -10z"/>
<path d="M5889 5912 c-13 -15 -12 -16 3 -4 13 10 17 10 21 0 4 -9 6 -9 6 -1 2
20 -16 24 -30 5z"/>
<path d="M5860 5897 c0 -10 8 -17 18 -17 9 0 13 4 7 8 -5 4 -13 11 -17 16 -5
5 -8 2 -8 -7z"/>
<path d="M5947 5873 c-4 -3 -26 -7 -49 -8 -24 -1 -44 -7 -46 -15 -3 -8 1 -11
9 -8 47 17 61 20 54 8 -4 -7 4 -5 17 4 14 9 28 13 33 9 4 -5 5 -2 1 5 -8 14
-10 14 -19 5z"/>
<path d="M6045 5681 c-3 -5 -1 -12 5 -16 5 -3 10 1 10 9 0 18 -6 21 -15 7z"/>
<path d="M6155 5579 c-16 -10 -25 -19 -19 -19 7 0 22 9 35 20 30 24 23 24 -16
-1z"/>
<path d="M6215 5430 c3 -5 8 -10 11 -10 2 0 4 5 4 10 0 6 -5 10 -11 10 -5 0
-7 -4 -4 -10z"/>
<path d="M6338 5423 c7 -3 16 -2 19 1 4 3 -2 6 -13 5 -11 0 -14 -3 -6 -6z"/>
<path d="M6324 5388 l-19 -23 23 19 c21 18 27 26 19 26 -2 0 -12 -10 -23 -22z"/>
<path d="M6475 5190 c-13 -6 -15 -9 -5 -9 8 0 22 4 30 9 18 12 2 12 -25 0z"/>
<path d="M6365 5121 c-6 -11 9 -23 19 -14 9 9 7 23 -3 23 -6 0 -12 -4 -16 -9z"/>
<path d="M6465 5050 c-3 -6 1 -7 9 -4 18 7 21 14 7 14 -6 0 -13 -4 -16 -10z"/>
<path d="M6425 4910 c-8 -13 5 -13 25 0 13 8 13 10 -2 10 -9 0 -20 -4 -23 -10z"/>
<path d="M6460 4783 c0 -6 3 -19 6 -28 6 -15 8 -15 24 0 10 9 27 17 38 18 11
0 19 5 16 9 -3 4 -15 3 -27 -1 -35 -14 -39 -13 -48 1 -6 8 -9 9 -9 1z"/>
<path d="M6493 4563 c-18 -2 -33 -8 -33 -14 0 -13 19 -11 55 6 31 14 30 14
-22 8z"/>
<path d="M6513 4534 c4 -4 1 -14 -6 -23 -11 -14 -10 -15 8 -1 11 8 21 15 23
16 2 1 -5 5 -15 8 -9 4 -14 4 -10 0z"/>
<path d="M6596 4238 c3 -5 10 -6 15 -3 13 9 11 12 -6 12 -8 0 -12 -4 -9 -9z"/>
<path d="M6655 4190 c-3 -6 1 -7 9 -4 18 7 21 14 7 14 -6 0 -13 -4 -16 -10z"/>
<path d="M6710 4169 c0 -5 5 -7 10 -4 6 3 10 8 10 11 0 2 -4 4 -10 4 -5 0 -10
-5 -10 -11z"/>
<path d="M6555 4080 c-3 -5 -1 -10 4 -10 6 0 11 5 11 10 0 6 -2 10 -4 10 -3 0
-8 -4 -11 -10z"/>
<path d="M6640 3920 c-8 -5 -10 -10 -5 -10 6 0 17 5 25 10 8 5 11 10 5 10 -5
0 -17 -5 -25 -10z"/>
<path d="M6676 3815 c-12 -9 -23 -11 -31 -5 -7 6 -11 3 -12 -10 -2 -18 0 -18
33 -3 19 9 34 20 34 25 0 10 -1 10 -24 -7z"/>
<path d="M6718 3763 c7 -3 16 -2 19 1 4 3 -2 6 -13 5 -11 0 -14 -3 -6 -6z"/>
<path d="M6640 3670 c-9 -6 -10 -10 -3 -10 6 0 15 5 18 10 8 12 4 12 -15 0z"/>
<path d="M6596 3658 c3 -4 1 -8 -5 -8 -18 0 -64 -20 -58 -26 6 -7 73 21 80 33
4 5 0 10 -8 10 -8 0 -12 -4 -9 -9z"/>
<path d="M6555 3480 c-3 -5 -1 -10 4 -10 6 0 11 5 11 10 0 6 -2 10 -4 10 -3 0
-8 -4 -11 -10z"/>
<path d="M6550 3299 c0 -5 5 -7 10 -4 6 3 10 8 10 11 0 2 -4 4 -10 4 -5 0 -10
-5 -10 -11z"/>
<path d="M6505 3090 c-10 -11 -15 -20 -11 -20 11 0 39 30 34 36 -3 2 -13 -5
-23 -16z"/>
<path d="M6480 2766 c7 -7 13 -7 20 0 6 6 3 10 -10 10 -13 0 -16 -4 -10 -10z"/>
<path d="M6510 2739 c0 -5 5 -7 10 -4 6 3 10 8 10 11 0 2 -4 4 -10 4 -5 0 -10
-5 -10 -11z"/>
<path d="M6470 2730 c-12 -7 -10 -9 7 -7 12 0 19 5 17 9 -6 10 -6 10 -24 -2z"/>
<path d="M6480 2670 c-8 -5 -12 -12 -9 -15 4 -3 12 1 19 10 14 17 11 19 -10 5z"/>
<path d="M6265 2140 c-4 -6 -11 -7 -17 -4 -7 4 -8 2 -4 -5 5 -8 12 -9 19 -3 7
6 21 12 32 15 19 4 18 5 -2 6 -12 0 -25 -4 -28 -9z"/>
<path d="M5820 1356 c0 -8 4 -17 9 -20 5 -4 7 3 4 14 -6 23 -13 26 -13 6z"/>
</g>
</svg>
